<svg width="522" height="523" viewBox="0 0 522 523" fill="none" xmlns="http://www.w3.org/2000/svg">
<path d="M46.8467 264.36C41.2872 270.114 34.5609 273.896 27.4456 277.169C25.0278 278.345 22.3825 278.98 19.6942 279.028C17.0058 279.077 14.3393 278.539 11.8805 277.451C3.56481 273.816 -1.13624 265.487 1.04328 259.002C3.61176 251.357 15.3141 245.053 23.3146 247.098C29.56 248.687 35.5023 251.29 40.905 254.804C44.9957 257.486 47.9599 258.459 51.5879 253.643C54.941 249.217 59.575 245.764 63.7329 241.981C66.7238 239.299 67.1665 236.791 63.6189 234.216C62.7605 233.592 62.1569 232.64 61.3589 231.922C46.679 218.697 52.4262 206.687 64.1218 197.003C71.0426 191.269 79.4187 188.345 87.9691 186.152C92.7305 184.932 95.071 182.196 96.0165 177.582C96.8414 173.431 98.1089 169.367 99.0075 165.229C102.555 148.98 115.579 143.333 129.185 138.578C133.39 137.11 135.724 135.225 136.951 130.652C143.087 107.817 158.478 94.9613 181.608 91.635C188.126 90.6961 190.997 87.6113 191.956 81.5757C193.236 73.5819 196.261 66.3459 200.432 59.2977C208.48 45.664 215.997 44.6245 230.154 54.1942C240.482 61.2291 240.032 61.8997 248.408 52.3702C248.743 51.9483 249.104 51.5474 249.488 51.1697C255.651 45.8048 257.126 41.7811 249.998 34.5115C239.355 23.6743 240.347 15.3854 249.89 5.13166C254.048 0.665324 268.178 -0.662505 272.94 2.96555C280.283 8.55182 281.725 15.8415 277.547 24.2108C274.864 29.6227 270.841 33.8812 266.649 38.0524C264.436 40.2722 263.605 41.4055 266.844 44.0209C272.43 48.561 277.279 54.0333 282.228 59.3178C284.91 62.188 286.976 62.966 290.034 59.6598C292.361 57.1383 295.519 55.3947 298.215 53.195C308.885 44.477 316.154 47.5551 324.061 58.6874C329.218 65.9569 331.84 74.5073 334.12 83.0376C335.522 88.4026 338.09 91.2393 343.563 93.3585C365.814 101.956 384.571 114.483 390.05 140.027C390.627 142.709 392.008 144.721 395.281 145.15C419.162 148.504 428 164.545 429.818 186.394C430.294 192.094 432.869 194.314 438.945 195.031C448.495 196.151 457.367 200.396 465.595 205.339C472.489 209.503 474.314 220.092 469.726 227.597C467.084 231.915 464.268 236.315 460.673 239.815C456.059 244.275 457.83 246.897 462.014 249.633C462.685 250.076 463.356 250.518 464.026 250.974C479.176 262.254 479.316 262.429 494.164 250.19C500.139 245.267 505.699 242.686 512.908 247.454C518.823 251.377 522.652 260.537 520.955 267.78C519.037 276.002 512.546 282.534 505.564 283.372C504.364 283.526 503.145 283.437 501.981 283.11C500.816 282.783 499.729 282.224 498.784 281.468C496.209 279.563 493.52 277.806 490.864 276.009C486.774 273.232 482.817 267.23 478.23 269.001C470.062 272.166 463.651 278.792 457.877 285.531C455.999 287.731 458.5 289.555 459.634 291.104C462.142 294.565 465.072 297.717 467.681 301.164C473.562 308.97 472.677 318.942 465.569 325.715C457.917 332.998 448.133 335.774 438.294 338.296C432.507 339.758 428.993 341.468 427.692 348.771C425.814 359.313 422.522 369.916 413.824 377.829C406.547 384.455 397.816 385.977 388.762 386.607C383.33 386.983 380.259 387.654 379.535 394.514C377.724 411.736 369.938 425.021 351.516 429.299C350.222 429.601 349.015 430.245 347.747 430.64C338.647 433.551 332.068 437.172 330.311 448.861C326.824 471.85 298.524 475.686 286.6 461.999C283.824 458.813 281.027 457.975 278.036 461.817C277.132 462.8 276.14 463.698 275.072 464.5C262.619 475.599 263.336 475.102 272.484 488.434C282.328 502.772 282.483 510.92 273.382 518.116C267.568 522.716 260.982 523.796 254.504 521.248C246.967 518.284 242.306 511.859 239.65 504.295C238.624 501.377 240.602 498.547 242.178 496.106C244.639 492.297 247.409 488.689 250.058 485.001C256.939 475.418 256.979 475.377 248.482 467.498C245.552 464.782 242.125 462.562 239.382 459.685C235.123 455.212 231.495 455.621 227.009 459.531C222.314 463.628 217.654 467.98 210.384 467.726C198.95 467.33 190.795 461.69 188.448 451.181C184.619 434.04 175.136 424.357 158.485 418.757C148.144 415.317 142.94 404.64 139.117 394.527C136.985 388.881 133.927 385.139 127.871 383.274C111.997 378.332 101.636 366.925 98.3235 351.232C95.5069 337.894 87.7612 332.569 75.8979 330.255C74.0738 329.9 72.3101 329.202 70.486 328.847C50.629 324.951 49.1335 304.423 58.6228 292.975C63.6122 286.94 63.5183 282.956 58.663 277.551C54.7533 273.199 51.7288 268.062 46.8467 264.36ZM286.795 68.9881C280.491 75.4127 274.241 81.6629 268.158 88.0673C266.394 89.9182 264.047 92.0172 266.964 94.8741C271.565 99.3605 276.118 103.901 280.732 108.374C283.415 110.969 285.541 111.432 288.686 108.172C292.341 104.397 296.894 101.325 301.428 98.6296C309.294 93.9822 320.406 96.5104 326.113 103.324C330.995 109.172 331.545 122.309 324.772 128.338C318.461 133.985 310.152 134.24 299.885 128.868C294.319 125.951 290.087 117.729 284.119 119.774C278.405 121.726 274.529 128.761 269.54 133.187C266.005 136.339 266.334 138.853 269.633 141.67C273.872 145.271 275.669 149.925 277.01 155.344C279.693 165.879 275.086 173.451 268.869 180.828C265.811 184.462 264.342 187.628 269.754 191.021C272.799 192.932 275.213 196.258 277.131 199.417C281.41 206.392 281.322 213.983 277.131 220.736C272.725 227.825 265.375 230.004 257.435 228.247C252.814 227.228 247.677 226.141 244.251 222.647C238.041 216.317 233.219 217.953 226.653 222.795C211.799 233.693 208.453 233.136 194.39 221.682C194.176 221.52 193.975 221.343 193.786 221.152C190.071 217.236 186.537 216.887 182.131 220.602C176.39 225.451 169.993 229.454 162.495 231.198C153.355 233.33 144.523 224.995 146.555 215.854C147.467 211.73 148.318 206.68 151.088 204.038C163.615 192.067 158.284 182.122 149.492 171.124C143.456 163.566 145.113 155.223 151.645 150.697C157.271 146.807 170.04 145.955 175.156 150.475C184.84 159.032 193.894 163.72 203.705 151.059C203.887 150.867 204.119 150.73 204.375 150.663C215.461 147.424 223.059 147.042 228.203 156.377C232.26 163.754 231.133 173.142 224.769 177.837C218.197 182.739 203.369 182.605 197.334 175.764C190.876 168.441 186.986 171.01 182.325 176.743C181.271 177.957 180.152 179.112 178.972 180.204C167.646 191.403 167.746 191.303 179.314 203.065C183.888 207.706 187.301 209.865 193.954 205.077C208.218 194.79 215.092 195.373 228.967 205.748C233.34 209.014 236.666 209.389 240.461 204.876C244.189 200.3 248.356 196.1 252.902 192.335C257.596 188.607 256.925 186.434 252.848 182.618C238.765 169.467 240.69 158.187 249.528 145.969C257.173 135.4 257.106 135.353 247.288 126.031C246.51 125.293 245.692 124.603 244.941 123.831C240.69 119.466 237.269 119.023 232.957 124.502C225.084 134.494 214.75 136.198 202.82 132.067C197.361 130.176 194.819 126.487 194.457 121.571C193.907 114.067 196.382 107.254 202.598 102.546C208.815 97.8382 215.769 98.6161 222.429 101.533C228.243 104.075 233.614 111.479 238.872 110.057C244.405 108.555 248.361 101.258 253.009 96.5037C253.565 95.9191 254.154 95.3661 254.773 94.8473C257.676 92.48 257.381 90.2535 255.255 87.2759C251.01 81.3275 245.867 76.2644 240.777 71.114C238.644 68.9546 237.209 69.1424 234.781 71.0604C228.498 76.0296 222.408 81.9244 214.71 84.171C199.614 88.6373 190.896 97.5767 185.605 112.867C181.132 125.749 171.354 136.909 155.97 138.109C135.851 139.678 139.741 137.767 134.778 157.557C134.584 158.328 134.624 159.166 134.423 159.938C130.896 173.612 123.364 183.362 108.725 186.166C106.378 186.615 104.091 187.4 101.737 187.822C98.1759 188.459 96.8749 190.29 95.7952 194.012C91.6978 208.135 86.2858 221.782 77.0782 233.579C75.5023 235.59 73.7251 237.086 76.2534 240.325C89.4512 257.392 91.5301 257.674 106.606 242.578C107.159 241.995 107.744 241.442 108.356 240.922C111.407 238.447 112.755 236.482 109.12 232.74C104.661 228.16 101.744 222.225 99.8257 216.055C97.7534 209.49 102.066 201.597 109.509 197.734C116.611 194.059 122.486 195.145 127.415 201.047C137.669 213.326 137.401 220.3 126.255 231.365C125.155 232.545 123.981 233.654 122.741 234.685C119.951 236.811 120.099 238.709 122.392 241.291C126.825 246.28 131.11 251.417 135.134 256.762C137.454 259.867 138.936 260.678 142.605 258.056C147.97 254.193 154.005 251.115 160.041 248.285C164.943 245.985 171.106 244.027 175.21 248.352C186.537 260.296 196.234 258.003 207.95 248.299C215.675 241.901 225.232 246.957 228.659 256.681C231.495 264.769 228.109 271.576 222.911 276.31C215.95 282.661 217.05 286.853 222.388 293.505C232.146 305.67 232.944 312.953 223.133 323.529C214.529 332.777 214.441 339.463 221.919 348.925C227.438 355.913 226.09 365.825 221.034 370.204C215.213 375.247 207.393 374.986 199.688 369.493C187.382 360.721 187.382 360.721 174.479 369.312C164.856 375.723 158.424 375.596 151.504 368.856C145.663 363.156 145.555 353.854 150.927 345.384C153.837 340.797 161.241 337.706 160.195 332.71C159.209 327.968 153.046 324.434 149.639 320.008C147.567 317.326 146.246 314.006 144.891 310.841C144.359 309.741 144.116 308.523 144.184 307.303C144.252 306.083 144.629 304.9 145.28 303.866C149.304 297.75 153.616 291.99 161.811 291.466C169.563 290.97 176.444 293.116 180.354 300.131C184.264 307.146 183.861 314.382 179.334 321.376C176.726 325.4 169.999 327.915 170.999 332.415C171.971 336.774 177.148 340.187 180.468 344.023C180.991 344.633 181.433 345.311 181.963 345.914C188.16 352.969 189.414 353.05 196.147 346.873C207.078 336.814 206.984 336.881 200.64 323.401C196.616 314.838 195.543 306.314 200.251 297.287C202.685 292.633 209.499 289.052 207.863 284.17C206.226 279.288 200.526 275.908 196.59 271.871C195.974 271.359 195.387 270.812 194.832 270.235C192.338 266.989 189.468 266.801 186.617 269.497C172.461 282.836 158.103 284.009 143.275 270.563C141.062 268.551 138.36 268.437 135.979 270.503C130.936 274.889 126.034 279.442 120.93 283.768C118.248 286.021 120.461 287.329 121.54 288.972C124.464 293.418 127.697 297.69 130.185 302.384C133.772 309.144 132.243 318.063 127.341 322.241C120.273 328.277 112.856 328.639 105.352 323.334C96.4793 317.064 95.9629 304.953 103.34 294.089C105.627 290.702 111.971 289.16 110.2 284.324C108.732 280.301 104.654 277.209 101.643 273.796C99.6848 271.583 97.2572 269.772 95.6075 267.351C92.7707 263.327 90.3364 263.642 87.4125 267.163C82.9529 272.528 78.3524 277.766 73.7922 283.037C72.0419 285.049 71.378 286.718 73.4368 289.287C81.7189 299.641 86.7083 311.766 91.2484 324.059C93.0792 329.021 96.4122 331.677 101.388 333.186C121.051 339.134 135.047 350.166 136.522 372.558C137.005 379.821 140.324 384.106 148.761 385.212C168.524 387.821 181.34 399.892 183.325 419.173C183.834 424.102 187.013 426.087 191.808 427.019C204.255 429.44 216.185 433.779 225.339 442.745C231.482 448.781 235.579 447.895 241.132 442.369C252.908 430.64 252.841 431.049 241.897 418.703C237.249 413.459 234.104 410.958 228.283 417.396C225.218 420.749 220.236 422.761 215.803 424.491C206.87 427.958 197.884 423.599 194.155 414.572C191.077 407.122 195.047 399.148 202.954 394.574C209.365 390.893 215.025 392.167 221.121 394.822C226.573 397.183 230.563 404.989 236.498 402.722C241.736 400.711 244.975 394.004 249.81 390.276C255.591 385.816 254.893 382.121 250.427 377.427C244.867 371.592 241.192 364.812 242.675 356.376C243.949 349.14 248.71 343.849 253.787 339.101C258.038 335.131 258.682 332.173 254.142 327.928C249.019 323.14 245.619 316.95 242.809 310.552C241.833 308.351 241.37 305.956 241.456 303.55C241.542 301.143 242.173 298.787 243.303 296.661C244.433 294.534 246.031 292.692 247.978 291.274C249.924 289.856 252.167 288.899 254.538 288.475C262.491 287.067 269.64 290.313 274.717 295.752C283.649 305.315 283.207 305.731 293.93 298.079C306.638 289.019 311.769 289.119 323.82 298.669C325.282 299.829 326.972 300.768 328.226 302.116C331.163 305.281 333.557 304.617 336.273 301.747C340.78 296.992 346.755 294.37 352.469 291.493C358.779 288.321 368.295 291.151 373.258 297.241C378.623 303.819 379.126 310.318 373.989 316.97C370.175 321.783 366.048 326.34 361.636 330.611C358.746 333.481 358.605 335.479 361.415 338.618C365.66 343.431 369.379 348.685 372.507 354.29C376.148 360.668 374.451 366.1 370.334 371.19C365.995 376.555 360.596 378.506 353.937 375.374C347.613 372.404 341.457 369.138 336.85 363.753C334.094 360.52 332.028 360.507 329.218 363.753C324.329 369.379 317.999 372.591 310.722 374.362C300.63 376.816 290.302 369.896 289.403 359.648C288.733 352.272 291.663 346.236 297.793 342.588C304.922 338.336 312.151 340.033 318.978 344.318C323.585 347.208 327.877 353.532 332.625 352.446C337.373 351.36 340.987 345.384 345.065 341.508C350.195 336.619 352.542 331.918 345.065 326.755C342.51 325.004 340.78 321.986 338.835 319.425C335.099 314.496 331.666 312.906 325.731 317.332C315.772 324.756 303.661 327.19 293.494 319.545C285.078 313.215 280.826 315.622 275.703 322.188C274.534 323.669 273.207 325.018 271.746 326.211C265.979 330.973 266.16 334.869 271.498 340.636C283.515 353.653 284.857 360.594 273.141 374.597C262.25 387.62 262.102 387.459 275.086 398.826C278.868 402.139 281.986 403.259 286.969 399.772C294.091 394.776 301.635 389.712 310.984 389.712C319.253 389.712 329.252 403.306 326.227 410.327C321.03 422.398 308.643 425.979 296.351 420.266C290.691 417.637 286.446 410.173 280.142 411.95C273.838 413.727 269.747 420.118 265.046 424.9C264.517 425.509 263.946 426.081 263.336 426.61C259.775 429.292 259.554 431.861 263.162 434.912C268.48 439.425 273.718 444.059 278.626 448.995C280.987 451.369 282.516 450.444 284.803 449.223C297.276 442.557 309.898 436.186 323.907 433.283C327.629 432.511 329.319 430.956 330.144 426.63C334.402 404.164 347.043 389.699 370.609 386.165C374.787 385.534 377.697 383.704 378.509 377.943C380.836 361.385 390.231 349.717 406.266 343.889C411.007 342.165 415.654 339.993 420.483 338.759C424.399 337.766 426.17 336.277 426.632 331.938C428.202 317.379 435.236 305.006 444.317 293.995C448.776 288.583 449.407 285.498 443.847 280.395C427.028 264.97 426.197 264.897 411.932 282.5C409.465 285.552 409.592 286.98 412.315 289.522C416.023 292.989 419.457 296.852 421.609 301.593C424.614 308.198 422.28 316.876 416.352 321.913C410.424 326.949 398.869 328.035 393.182 323.14C387.495 318.244 385.289 312.095 388.353 304.409C390.815 298.253 395.093 293.586 399.13 288.636C400.565 286.879 403.248 285.458 400.472 282.728C395.918 278.215 391.472 273.594 386.824 269.182C382.848 265.406 379.448 264.528 374.887 269.524C367.423 277.672 355.533 282.078 347.539 275.6C334.69 265.185 324.839 268.095 313.633 275.922C313.171 276.196 312.689 276.436 312.191 276.639C305.29 280.039 298.826 278.805 294.125 273.179C289.028 267.063 290.436 260.135 294.453 253.784C295.58 252 297.27 250.565 298.752 249.023C307.55 239.856 307.557 239.856 298.993 230.849C298.249 230.071 297.424 229.367 296.733 228.549C289.913 220.501 289.142 212.454 294.554 203.468C295.995 200.911 297.821 198.59 299.966 196.587C304.452 192.677 305.767 189.445 301.039 184.308C297.719 180.7 295.674 175.684 293.85 170.983C289.397 159.415 296.177 150.462 308.369 151.226C312.754 151.501 317.71 152.346 320.44 155.069C331.431 166.128 340.136 163.183 350.195 153.325C355.171 148.45 362.836 148.544 369.294 153.788C375.33 158.663 376.557 164.625 374.874 171.707C373.667 176.797 371.279 181.364 367.376 184.724C360.885 190.303 359.53 195.326 367.269 200.993C369.281 202.489 370.622 205.144 371.903 207.471C375.612 214.238 373.58 223.72 367.557 228.609C362.005 233.116 350.437 233.163 345.058 228.696C337.997 222.828 336.38 214.922 341.182 207.357C343.579 203.485 346.459 199.933 349.753 196.788C353.421 193.375 354.259 190.652 350.108 187.198C348.478 185.857 347.224 184.04 345.736 182.504C336.246 172.639 336.246 172.646 324.886 180.734C312.426 189.593 312.426 189.593 320.674 202.348C328.185 213.956 329.513 223.345 321.211 230.883C312.748 238.561 315.343 242.954 322.203 248.486C324.084 249.986 325.814 251.666 327.367 253.503C330.828 257.647 333.604 257.526 337.896 253.872C349.169 244.329 359.617 243.504 370.837 250.109C374.653 252.349 377.63 257.989 381.936 256.742C385.825 255.608 388.642 250.887 391.995 247.776C402.242 238.192 402.148 238.273 393.571 226.805C390.05 222.111 386.543 216.887 387.18 210.771C387.817 204.655 399.506 197.499 406.702 197.948C410.6 198.211 414.272 199.87 417.047 202.62C419.822 205.37 421.513 209.028 421.811 212.923C422.481 221.031 418.686 227.214 413.917 233.216C412.14 235.45 408.754 237.294 411.181 241.418C422.153 260.028 429.241 261.45 444.813 247.876C445.215 247.527 445.611 247.172 446.027 246.83C447.945 245.227 448.783 243.591 446.389 241.633C435.9 233.022 433.339 220.3 430.475 208.269C428.698 200.785 425.499 197.063 418.498 194.495C401.256 188.171 387.133 179.07 388.937 157.128C389.386 151.602 386.791 147.364 379.91 145.325C363.145 140.369 349.491 131.061 343.026 113.625C341.276 108.93 338.546 104.565 336.374 99.9976C335.314 97.7779 334.308 95.5984 331.599 95.0619C313.827 91.4874 299.805 81.5489 286.795 68.9881ZM187.885 95.2496C165.687 96.3897 146.85 110.875 141.612 130.31C140.982 132.657 140.11 135.178 144.362 134.95C156.855 134.28 168.189 131.061 175.653 120.096C180.966 112.482 185.09 104.104 187.885 95.2496ZM387.059 383.489C402.443 381.853 414.219 377.286 420.516 357.154C421.911 352.694 425.814 347.229 422.736 343.909C420.087 341.039 415.245 346.062 411.242 347.155C409.964 347.526 408.71 347.974 407.486 348.496C394.409 353.861 386.382 363.337 383.471 377.266C382.506 381.786 383.263 384.119 387.032 383.489H387.059ZM466.655 315.086C466.782 308.152 458.467 294.337 454.383 292.479C452.243 291.507 451.466 293.15 450.56 294.216C441.594 304.946 434.566 316.769 431.635 330.651C430.911 334.071 432.011 335.868 435.887 334.561C441.923 332.549 448.407 331.382 453.833 328.324C459.62 325.024 465.924 321.242 466.628 315.059L466.655 315.086ZM374.968 395.265C375.417 391.241 375.263 389.525 369.972 390.805C350.222 395.574 339.063 406.632 335.327 425.892C334.509 430.097 335.327 430.862 339.096 429.312C344.515 427.086 349.873 424.699 355.392 422.781C368.563 418.207 372.949 407.578 374.968 395.265ZM433.117 198.612C433.788 202.033 433.989 204.42 434.68 206.66C437.939 217.349 440.756 228.301 448.703 236.771C450.252 238.414 451.714 242.022 455 238.615C459.835 233.599 464.288 228.328 466.769 221.682C468.841 216.142 467.5 211.837 462.256 208.799C453.457 203.696 444.042 200.423 433.117 198.612ZM261.345 46.7369C260.53 46.7257 259.726 46.9332 259.019 47.3378C258.311 47.7423 257.725 48.3291 257.321 49.0372C253.921 54.9655 246.376 58.2582 244.472 64.0792C242.004 71.617 252.667 73.4679 255.235 79.5772C255.906 81.227 257.763 82.3871 258.548 84.0234C260.848 88.8117 262.974 86.9675 265.221 84.0838C266.213 82.8163 267.293 81.6226 268.205 80.3082C272.041 74.7421 281.899 71.3219 280.404 65.0315C278.969 58.9959 271.189 54.4088 266.086 49.292C264.839 48.0245 263.477 46.5626 261.345 46.7369ZM134.497 263.636C134.208 263.2 133.954 262.744 133.638 262.328C130.238 257.875 126.932 253.328 123.398 248.996C116.021 239.97 115.947 240.03 107.974 248.071C105.144 250.921 102.3 253.771 99.3026 256.433C97.0292 258.445 95.8489 260.296 98.29 263.032C103.447 268.813 108.49 274.694 113.58 280.535C114.331 281.4 115.397 282.145 116.323 281.313C122.298 275.989 128.18 270.583 134.054 265.118C134.369 264.816 134.356 264.145 134.497 263.636ZM393.209 150.019C392.209 154.566 394.986 158.784 394.215 163.378C393.329 168.662 395.482 173.317 399.103 177.273C405.662 184.435 414.756 187.245 423.152 191.195C425.459 192.282 426.418 190.746 425.915 188.178C421.18 163.928 420.51 154.968 393.209 150.019ZM91.4764 190.424C82.0006 192.181 73.8995 195.212 67.4146 200.524C52.4128 212.816 53.3316 217.859 67.6158 231.587C69.1649 233.069 70.2982 233.907 72.0955 231.667C81.6586 219.609 87.4661 205.895 91.4764 190.424ZM247.49 359.836C247.617 365.007 254.384 379.17 258.22 379.606C264.986 380.384 266.495 373.336 270.17 369.547C271.142 368.63 272.039 367.636 272.852 366.576C277.855 359.427 271.069 340.462 262.74 338.329C262.369 338.232 261.982 338.217 261.606 338.286C261.229 338.354 260.872 338.504 260.56 338.725C254.913 344.955 248.133 350.535 247.49 359.836ZM330.647 89.7103C329.084 78.3701 325.952 69.4442 321.124 62.0942C313.901 51.163 298.034 52.3635 291.952 64.2401C290.738 66.6007 292.267 67.8749 293.548 68.9747C304.499 78.3031 316.074 86.498 330.673 89.7103H330.647ZM384.98 261.745C390.647 267.398 396.381 272.951 401.913 278.718C404.334 281.246 405.984 281.219 408.237 278.51C412.972 272.823 417.961 267.351 423.051 261.564C419.262 257.231 413.408 252.47 409.277 246.139C407.587 243.557 405.414 242.498 402.805 245.241C397.286 251.068 390.144 255.112 384.98 261.745ZM385.886 141.59C380.386 119.352 359.49 99.5953 341.45 98.7771C349.337 119.68 360.885 136.902 385.886 141.59ZM228.122 451.865C219.444 443.188 209.646 436.951 198.072 433.859C194.598 432.927 190.145 429.614 187.563 432.518C185.337 435.033 188.435 439.459 189.628 442.812C197.575 465.285 209.204 470.187 228.122 451.865ZM372.037 306.602C371.89 298.555 363.319 292.989 355.406 295.872C349.042 298.193 344.005 302.726 338.459 306.374C335.777 308.138 336.012 310.036 338.379 312.122C343.623 316.729 348.123 322.033 352.401 327.546C353.072 328.451 353.696 329.759 355.493 329.283C359.751 328.136 372.104 311.371 372.037 306.602ZM68.0181 281.602C71.1499 278.249 75.1602 275.378 77.0648 271.489C79.5394 266.439 88.566 264.695 85.9908 258.271C83.8515 252.946 78.1244 249.063 73.98 244.543C73.8056 244.342 73.5709 244.194 73.3965 243.993C71.6999 241.981 70.1172 241.773 68.1321 243.832C63.3439 248.815 58.3679 253.623 53.5394 258.586C52.386 259.766 50.0992 260.906 52.453 263.012C58.4484 268.357 61.265 276.378 68.0181 281.602ZM245.88 305.905C245.88 308.507 248.71 312.202 251.111 315.964C260.936 331.476 260.982 331.435 272.839 317.487C274.619 315.495 276.5 313.595 278.472 311.793C279.76 310.559 280.658 309.298 279.089 307.769C273.235 302.002 268.125 295.182 259.46 293.27C253.404 291.923 246.061 297.643 245.88 305.905ZM259.916 480.313L249.448 494.852C243.412 503.215 244.921 509.975 253.733 515.601C260.205 519.739 265.945 517.801 271.169 513.67C276.769 509.25 276.346 503.497 273.181 497.776C269.734 491.432 264.953 486.067 259.916 480.313ZM256.362 434.798C255.369 435.509 254.35 435.945 253.767 436.709C249.944 441.598 245.236 445.575 240.448 449.451C236.968 452.254 239.288 453.723 241.42 455.487C245.297 458.739 249.555 461.69 252.821 465.492C257.643 471.146 260.741 472.004 266.569 465.781C277.721 453.864 278.238 454.38 265.898 443.771C262.679 440.995 259.688 437.943 256.362 434.798ZM280.015 115.02C278.714 111.043 274.858 109.172 272.162 106.342C261.801 95.4844 261.74 95.5447 251.594 106.006C242.943 114.926 242.943 114.926 251.788 123.758C262.109 134.058 262.109 134.058 272.336 123.208C274.864 120.525 278.593 118.976 280.015 115.02ZM260.044 223.606C269.868 224.015 273.456 219.288 274.985 212.306C276.367 205.902 270.063 194.87 262.88 192.114C256.791 189.787 257.113 197.043 253.86 199.162C251.849 200.457 250.306 202.408 248.569 204.078C238.369 213.882 238.912 216.27 252.66 221.346C255.658 222.446 258.756 223.217 260.044 223.606ZM99.8793 181.605C122.097 181.149 128.864 169.735 132.176 143.279C109.945 146.116 102.287 161.822 99.8793 181.605ZM474.086 265.54C472.59 264.152 471.738 263.28 470.813 262.502C467.54 259.753 464.107 257.198 460.995 254.274C455.583 249.177 451.472 247.648 444.773 253.979C433.547 264.581 432.883 263.884 443.861 274.044C452.82 282.339 452.78 282.292 462.034 274.466C464.67 272.233 467.621 270.369 470.417 268.323C471.53 267.525 472.583 266.7 474.112 265.54H474.086ZM255.282 427.106C260.01 422.66 264 419.153 267.689 415.404C276.367 406.625 276.32 406.578 267.957 398.169C258.535 388.693 258.535 388.693 249.18 398.263C239.04 408.59 239.053 408.584 248.884 419.555C250.97 421.909 252.955 424.363 255.282 427.106ZM196.08 86.8669C207.38 83.2656 217.204 78.35 226.13 71.4761C235.714 64.0993 235.921 62.6843 225.419 56.1659C220.195 52.9268 213.643 50.0498 208.654 56.0452C201.492 64.6559 196.496 74.5275 196.08 86.8669ZM165.05 152.863C154.951 152.822 148.861 157.309 151.229 164.022C153.985 171.841 158.17 180.512 165.09 183.812C169.114 185.736 174.566 176.777 179.375 172.733C181.199 171.204 182.869 169.494 184.552 167.811C185.464 166.899 186.959 165.403 185.504 164.545C178.858 160.615 174.875 152.091 165.05 152.863ZM272.725 162.285C272.343 155.029 270.861 148.168 264.678 143.119C262.666 141.489 261.264 141.18 259.071 142.662C255.838 144.802 253.19 147.715 251.369 151.138C249.547 154.561 248.61 158.384 248.642 162.262C248.674 166.139 249.674 169.946 251.552 173.339C253.429 176.731 256.125 179.6 259.393 181.686C261.231 182.873 262.183 182.571 263.276 181.237C267.836 175.657 272.785 170.279 272.725 162.285ZM99.0343 338.128C100.919 344.103 102.461 349.113 104.084 354.096C107.974 366.046 116.31 373.617 127.556 378.647C132.639 380.914 133.491 379.318 132.968 374.623C130.889 355.806 119.575 343.238 99.0343 338.128ZM327.622 437.38C314.29 440.277 302.071 445.964 290.121 452.308C288.109 453.368 284.521 454.877 287.526 457.257C291.925 460.751 296.002 465.251 302.588 465.305C318.622 465.311 328.447 454.568 327.622 437.36V437.38ZM354.809 338.37C349.29 343.909 344.012 349.234 338.714 354.518C336.776 356.443 335.589 358.2 338.499 360.332C344.3 364.564 349.9 369.051 356.881 371.364C361.576 372.927 364.493 370.305 367.43 367.528C370.367 364.752 370.562 361.788 368.651 358.14C364.996 350.921 360.336 344.258 354.809 338.35V338.37ZM321.392 219.066C320.896 209.349 315.028 202.924 310.146 196.017C309.368 194.904 308.275 195.159 307.463 196.057C302.407 201.805 295.613 207.035 296.177 215.458C296.72 223.653 303.319 228.797 308.918 234.122C310.454 235.59 312.003 234.618 313.17 233.538C317.368 229.694 320.246 224.622 321.392 219.046V219.066ZM259.822 38.039C265.905 31.9498 272.343 26.4507 275.247 17.8734C276.742 13.4742 275.454 10.6442 272.618 7.95497C269.486 4.99083 256.577 5.13836 252.942 7.99521C246.376 13.1523 245.23 18.7251 249.213 26.0483C251.829 30.8097 255.51 34.5853 259.822 38.039ZM313.123 101.265C308.147 101.191 289.37 111.78 290.242 114.007C292.924 120.934 299.852 123.121 306.088 125.796C307.306 126.3 308.556 126.721 309.83 127.057C314.102 128.251 318.475 128.687 321.379 124.636C324.96 119.62 326.321 114.014 323.276 108.119C320.99 103.706 316.785 102.231 313.123 101.265ZM67.2805 290.3C65.329 292.311 63.3372 294.102 61.7411 296.168C54.7197 305.275 56.0274 317.004 65.0339 321.772C71.9614 325.44 79.7875 326.728 88.3312 328.88C82.1816 314.67 77.9634 300.929 67.2805 290.3ZM162.006 275.419C171.877 275.03 178.02 269.718 184.404 264.937C184.822 264.62 185.119 264.17 185.247 263.662C185.375 263.154 185.326 262.617 185.108 262.14C183.66 258.117 169.523 250.069 165.587 251.739C159.216 254.421 153.073 257.681 146.997 260.987C145.441 261.832 142.497 263.562 145.361 265.795C150.732 269.98 155.789 275.036 162.006 275.419ZM184.471 355.631C179.878 350.401 175.452 345.445 171.106 340.415C167.116 335.801 163.3 336.579 160.282 341.166C157.35 345.558 154.827 350.209 152.744 355.061C150.934 359.367 152.315 363.364 155.89 366.596C159.357 369.728 163.266 370.03 166.948 367.817C173.051 364.148 179.408 360.762 184.471 355.631ZM370.146 168.528C370.354 157.322 362.353 151.91 354.219 156.551C349.431 159.28 345.34 163.257 340.974 166.698C339.049 168.22 339.385 169.702 341.048 171.332C345.997 176.194 350.993 181.015 355.687 186.085C357.491 188.05 358.37 187.668 360.047 186.132C365.76 180.888 369.516 174.691 370.146 168.528ZM177.343 309.848C177.691 298.025 169.677 292.774 159.236 297.844C147.239 303.665 146.494 309.064 156.245 318.955C156.996 319.72 157.828 320.397 158.552 321.182C166.599 329.98 167.096 329.853 174.439 320.37C176.981 317.071 176.29 313.242 177.343 309.848ZM483.146 264.635C488.256 268.276 493.205 271.388 497.644 275.07C504.813 280.985 510.547 280.12 515.677 269.39C518.749 262.958 515.832 256.728 511.412 251.793C508.388 248.406 504.176 248.439 500.468 251.182C494.687 255.481 489.081 259.981 483.112 264.635H483.146ZM305.451 369.802C314.116 368.836 321.157 365.972 326.958 360.413C328.447 358.985 329.379 357.456 327.253 355.719C320.815 350.575 314.739 344.821 305.411 345.874C298.504 346.652 292.81 351.909 292.817 358.066C292.817 363.189 300.174 369.627 305.451 369.802ZM297.464 164.84C299.336 172.265 302.937 179.143 307.973 184.912C309.602 186.769 310.716 185.522 311.93 184.549C317.154 180.372 322.331 176.14 327.582 171.989C329.989 170.084 330.264 168.495 327.816 166.208C321.519 160.347 314.303 156.672 305.686 156.108C300.442 155.787 297.686 158.295 297.464 164.84ZM212.094 289.79C211.491 290.212 210.813 290.635 210.203 291.131C202.92 297.053 199.768 311.042 203.738 319.753C209.774 332.978 209.774 332.985 218.492 321.309C219.983 319.427 221.328 317.434 222.516 315.347C225.594 309.553 219.598 292.721 213.65 290.152C213.143 289.988 212.622 289.867 212.094 289.79ZM141.344 388.914C146.984 405.894 157.841 416.564 174.607 420.997C175.847 421.325 177.43 422.016 178.342 421.547C180.441 420.474 178.671 418.784 178.342 417.396C174.204 399.49 164.93 392.301 141.344 388.914ZM213.147 128.586C220.303 128.586 233.554 121.518 232.595 116.763C231.093 109.386 222.999 108.253 216.795 105.651C211.102 103.257 206.736 105.524 203.383 109.46C200.298 113.034 197.421 117.394 200.03 122.537C202.639 127.681 207.393 128.908 213.147 128.586ZM42.159 261.604C40.7038 259.122 38.1822 258.626 36.1234 257.58C32.6161 255.749 28.9143 254.287 25.3264 252.604C19.2909 249.781 13.832 251.363 9.00354 255.079C6.22047 257.225 2.76677 259.585 4.64451 264.313C7.17946 270.671 16.3603 275.66 23.0866 273.702C30.5439 271.482 37.2367 267.861 42.159 261.604ZM356.68 272.24C364.204 273.648 369.314 266.982 375.37 262.315C376.778 261.235 376.289 260.195 374.948 259.176C368.912 254.609 362.622 250.659 354.608 251.249C349.048 251.665 336.501 259.384 336.863 262.026C337.346 265.46 349.357 272.159 356.673 272.24H356.68ZM162.67 225.35C165.225 225.256 168.202 223.338 171.193 221.648C184.129 214.305 184.404 213.929 173.319 204.091C170.1 201.241 169.711 193.589 163.689 195.762C158.995 197.459 157.331 203.367 154.81 207.74C153.891 209.35 153.14 211.051 152.57 212.816C150.377 219.536 154.488 225.196 162.663 225.35H162.67ZM402.108 320.625C410.584 320.692 417.237 315.575 418.35 308.145C419.021 303.497 412.449 291.748 406.95 290.923C400.284 289.917 399.204 297.375 395.938 301.398C394.224 303.452 393.098 305.932 392.679 308.574C391.485 316.735 394.436 320.565 402.108 320.625ZM210.143 421.493C213.932 420.943 218.311 418.408 222.563 415.585C233.252 408.476 233.158 407.108 221.758 400.697C214.891 396.841 208.178 394.548 201.566 401.314C198.286 404.667 196.663 408.396 198.333 412.889C200.104 417.664 202.96 421.453 210.143 421.493ZM307.604 318.888C313.492 317.547 319.89 316.648 325.107 312.524C326.891 311.116 329.58 309.66 326.2 307.072C322.405 304.168 318.944 300.627 314.8 298.421C304.928 293.197 299.375 301.908 292.475 306.133C290.946 307.072 288.572 308.312 289.92 310.331C293.595 315.823 299.677 317.305 305.673 318.72C306.313 318.804 306.958 318.849 307.604 318.855V318.888ZM296.203 263.595C296.116 270.536 300.764 273.936 307.745 272.314C314.397 270.785 319.93 267.089 325.583 263.595C326.556 262.992 328.407 262.113 327.045 260.685C321.875 255.273 316.517 250.042 311.145 244.838C310.816 244.516 309.67 244.838 308.992 245.113C303.889 247.098 296.257 258.17 296.183 263.562L296.203 263.595ZM115.404 322.087C125.906 322.087 130.319 311.645 124.002 301.036C121.628 297.053 119.656 290.568 115.23 290.689C110.482 290.816 107.538 296.865 105.077 301.19C99.8324 310.331 105.801 322.027 115.384 322.053L115.404 322.087ZM105.184 213.239C106.686 219.073 109.087 225.498 113.761 230.836C114.666 231.868 115.364 233.169 117.597 232.13C128.421 227.1 131.68 216.163 124.92 206.05C122.392 202.254 119.964 198.82 114.023 200.718C107.954 202.65 105.177 206.15 105.184 213.239ZM356.787 196.265C352.363 199.952 348.65 204.415 345.829 209.436C342.53 215.425 343.703 221.212 348.633 225.316C353.179 229.099 359.155 230.326 363.963 225.612C368.657 221.004 370.468 215.029 366.598 208.96C363.762 204.487 360.134 200.53 356.787 196.265ZM213.275 176.945C222.093 176.864 226.526 173.068 226.425 165.698C226.332 158.952 220.618 153.983 213.107 154.117C207.447 154.217 194.598 162.768 194.718 166.356C194.859 170.198 206.783 176.998 213.288 176.945H213.275ZM285.487 406.411C291.288 411.829 297.075 415.062 303.097 417.764C310.87 421.252 314.827 415.243 319.125 410.589C322.646 406.773 320.842 403.031 318.146 399.859C314.176 395.232 309.482 392.931 303.393 396.559C297.907 399.845 292.233 402.736 285.487 406.411ZM230.999 213.46C214.462 200.215 202.981 200.343 192.237 213.607C213.436 230.339 210.491 227.543 230.999 213.46ZM215.025 251.176C208.989 251.994 204.027 256.614 198.487 260.256C194.819 262.67 195.456 264.481 198.226 267.009C202.37 270.778 206.273 274.781 210.297 278.684C211.678 280.026 213.241 281.548 214.897 279.288C218.639 274.171 223.24 269.53 224.286 262.838C225.339 255.957 221.818 250.927 215.025 251.162V251.176ZM417.11 216.974C416.955 209.087 412.127 203.34 406.655 202.804C399.948 202.133 395.133 204.085 393.873 211.622C393.282 215.183 401.544 232.029 404.985 233.082C405.655 233.283 406.836 233.143 407.151 232.707C411.108 227.194 416.399 222.386 417.11 216.981V216.974ZM220.135 360.695C220.028 353.901 211.98 339.369 210.445 340.65C204.409 345.706 198.481 351.105 193.558 357.214C191.996 359.152 206.79 368.957 211.424 368.876C218.063 368.749 220.034 364.691 220.135 360.695Z" fill="#4C0153"/>
<path d="M277.353 259.981C277.286 268.626 268.843 276.23 258.978 276.526C251.547 276.74 242.843 266.748 243.144 258.358C243.48 249.064 252.808 239.93 262.022 239.869C270.278 239.809 277.433 249.198 277.353 259.981ZM247.845 258.037C248.087 263.945 253.995 271.751 258.24 271.778C264.98 271.811 273.376 264.434 273.088 258.721C272.719 251.344 266.415 244.51 260.285 244.819C253.593 245.154 247.564 251.558 247.839 258.037H247.845Z" fill="#4C0153"/>
<path d="M261.313 25.8402C263.35 25.8402 265.002 24.1888 265.002 22.1518C265.002 20.1147 263.35 18.4634 261.313 18.4634C259.276 18.4634 257.625 20.1147 257.625 22.1518C257.625 24.1888 259.276 25.8402 261.313 25.8402Z" fill="#4C0153"/>
<path d="M214.368 70.7718C216.405 70.7718 218.057 69.1205 218.057 67.0834C218.057 65.0464 216.405 63.395 214.368 63.395C212.331 63.395 210.68 65.0464 210.68 67.0834C210.68 69.1205 212.331 70.7718 214.368 70.7718Z" fill="#4C0153"/>
<path d="M308.927 70.7718C310.964 70.7718 312.615 69.1205 312.615 67.0834C312.615 65.0464 310.964 63.395 308.927 63.395C306.89 63.395 305.238 65.0464 305.238 67.0834C305.238 69.1205 306.89 70.7718 308.927 70.7718Z" fill="#4C0153"/>
<path d="M308.927 120.398C310.964 120.398 312.615 118.746 312.615 116.709C312.615 114.672 310.964 113.021 308.927 113.021C306.89 113.021 305.238 114.672 305.238 116.709C305.238 118.746 306.89 120.398 308.927 120.398Z" fill="#4C0153"/>
<path d="M363.919 123.751C365.956 123.751 367.607 122.099 367.607 120.062C367.607 118.025 365.956 116.374 363.919 116.374C361.882 116.374 360.23 118.025 360.23 120.062C360.23 122.099 361.882 123.751 363.919 123.751Z" fill="#4C0153"/>
<path d="M356.54 172.036C358.577 172.036 360.228 170.384 360.228 168.347C360.228 166.31 358.577 164.659 356.54 164.659C354.503 164.659 352.852 166.31 352.852 168.347C352.852 170.384 354.503 172.036 356.54 172.036Z" fill="#4C0153"/>
<path d="M409.52 174.718C411.557 174.718 413.209 173.067 413.209 171.03C413.209 168.993 411.557 167.341 409.52 167.341C407.483 167.341 405.832 168.993 405.832 171.03C405.832 173.067 407.483 174.718 409.52 174.718Z" fill="#4C0153"/>
<path d="M405.497 265.922C407.534 265.922 409.185 264.271 409.185 262.234C409.185 260.197 407.534 258.545 405.497 258.545C403.46 258.545 401.809 260.197 401.809 262.234C401.809 264.271 403.46 265.922 405.497 265.922Z" fill="#4C0153"/>
<path d="M455.122 268.605C457.159 268.605 458.81 266.953 458.81 264.916C458.81 262.879 457.159 261.228 455.122 261.228C453.085 261.228 451.434 262.879 451.434 264.916C451.434 266.953 453.085 268.605 455.122 268.605Z" fill="#4C0153"/>
<path d="M455.122 223.003C457.159 223.003 458.81 221.351 458.81 219.314C458.81 217.277 457.159 215.626 455.122 215.626C453.085 215.626 451.434 217.277 451.434 219.314C451.434 221.351 453.085 223.003 455.122 223.003Z" fill="#4C0153"/>
<path d="M405.497 311.524C407.534 311.524 409.185 309.873 409.185 307.836C409.185 305.799 407.534 304.147 405.497 304.147C403.46 304.147 401.809 305.799 401.809 307.836C401.809 309.873 403.46 311.524 405.497 311.524Z" fill="#4C0153"/>
<path d="M503.407 267.264C505.444 267.264 507.096 265.612 507.096 263.575C507.096 261.538 505.444 259.887 503.407 259.887C501.37 259.887 499.719 261.538 499.719 263.575C499.719 265.612 501.37 267.264 503.407 267.264Z" fill="#4C0153"/>
<path d="M455.122 318.231C457.159 318.231 458.81 316.579 458.81 314.542C458.81 312.505 457.159 310.854 455.122 310.854C453.085 310.854 451.434 312.505 451.434 314.542C451.434 316.579 453.085 318.231 455.122 318.231Z" fill="#4C0153"/>
<path d="M402.142 367.857C404.179 367.857 405.83 366.205 405.83 364.168C405.83 362.131 404.179 360.48 402.142 360.48C400.104 360.48 398.453 362.131 398.453 364.168C398.453 366.205 400.104 367.857 402.142 367.857Z" fill="#4C0153"/>
<path d="M406.165 218.979C408.202 218.979 409.853 217.328 409.853 215.29C409.853 213.253 408.202 211.602 406.165 211.602C404.128 211.602 402.477 213.253 402.477 215.29C402.477 217.328 404.128 218.979 406.165 218.979Z" fill="#4C0153"/>
<path d="M356.54 218.979C358.577 218.979 360.228 217.328 360.228 215.29C360.228 213.253 358.577 211.602 356.54 211.602C354.503 211.602 352.852 213.253 352.852 215.29C352.852 217.328 354.503 218.979 356.54 218.979Z" fill="#4C0153"/>
<path d="M355.2 265.252C357.237 265.252 358.889 263.6 358.889 261.563C358.889 259.526 357.237 257.875 355.2 257.875C353.163 257.875 351.512 259.526 351.512 261.563C351.512 263.6 353.163 265.252 355.2 265.252Z" fill="#4C0153"/>
<path d="M355.2 314.207C357.237 314.207 358.889 312.556 358.889 310.518C358.889 308.481 357.237 306.83 355.2 306.83C353.163 306.83 351.512 308.481 351.512 310.518C351.512 312.556 353.163 314.207 355.2 314.207Z" fill="#4C0153"/>
<path d="M355.2 363.833C357.237 363.833 358.889 362.182 358.889 360.144C358.889 358.107 357.237 356.456 355.2 356.456C353.163 356.456 351.512 358.107 351.512 360.144C351.512 362.182 353.163 363.833 355.2 363.833Z" fill="#4C0153"/>
<path d="M356.54 412.788C358.577 412.788 360.228 411.137 360.228 409.1C360.228 407.062 358.577 405.411 356.54 405.411C354.503 405.411 352.852 407.062 352.852 409.1C352.852 411.137 354.503 412.788 356.54 412.788Z" fill="#4C0153"/>
<path d="M308.927 172.036C310.964 172.036 312.615 170.384 312.615 168.347C312.615 166.31 310.964 164.659 308.927 164.659C306.89 164.659 305.238 166.31 305.238 168.347C305.238 170.384 306.89 172.036 308.927 172.036Z" fill="#4C0153"/>
<path d="M308.927 218.308C310.964 218.308 312.615 216.657 312.615 214.62C312.615 212.583 310.964 210.932 308.927 210.932C306.89 210.932 305.238 212.583 305.238 214.62C305.238 216.657 306.89 218.308 308.927 218.308Z" fill="#4C0153"/>
<path d="M308.927 263.24C310.964 263.24 312.615 261.588 312.615 259.551C312.615 257.514 310.964 255.863 308.927 255.863C306.89 255.863 305.238 257.514 305.238 259.551C305.238 261.588 306.89 263.24 308.927 263.24Z" fill="#4C0153"/>
<path d="M307.587 311.524C309.624 311.524 311.275 309.873 311.275 307.836C311.275 305.799 309.624 304.147 307.587 304.147C305.55 304.147 303.898 305.799 303.898 307.836C303.898 309.873 305.55 311.524 307.587 311.524Z" fill="#4C0153"/>
<path d="M261.313 70.7718C263.35 70.7718 265.002 69.1205 265.002 67.0834C265.002 65.0464 263.35 63.395 261.313 63.395C259.276 63.395 257.625 65.0464 257.625 67.0834C257.625 69.1205 259.276 70.7718 261.313 70.7718Z" fill="#4C0153"/>
<path d="M261.313 120.398C263.35 120.398 265.002 118.746 265.002 116.709C265.002 114.672 263.35 113.021 261.313 113.021C259.276 113.021 257.625 114.672 257.625 116.709C257.625 118.746 259.276 120.398 261.313 120.398Z" fill="#4C0153"/>
<path d="M213.028 121.739C215.065 121.739 216.717 120.088 216.717 118.051C216.717 116.014 215.065 114.362 213.028 114.362C210.991 114.362 209.34 116.014 209.34 118.051C209.34 120.088 210.991 121.739 213.028 121.739Z" fill="#4C0153"/>
<path d="M115.786 168.012C117.823 168.012 119.474 166.36 119.474 164.323C119.474 162.286 117.823 160.635 115.786 160.635C113.749 160.635 112.098 162.286 112.098 164.323C112.098 166.36 113.749 168.012 115.786 168.012Z" fill="#4C0153"/>
<path d="M162.731 121.739C164.768 121.739 166.42 120.088 166.42 118.051C166.42 116.014 164.768 114.362 162.731 114.362C160.694 114.362 159.043 116.014 159.043 118.051C159.043 120.088 160.694 121.739 162.731 121.739Z" fill="#4C0153"/>
<path d="M261.313 166C263.35 166 265.002 164.349 265.002 162.311C265.002 160.274 263.35 158.623 261.313 158.623C259.276 158.623 257.625 160.274 257.625 162.311C257.625 164.349 259.276 166 261.313 166Z" fill="#4C0153"/>
<path d="M213.028 170.024C215.065 170.024 216.717 168.372 216.717 166.335C216.717 164.298 215.065 162.647 213.028 162.647C210.991 162.647 209.34 164.298 209.34 166.335C209.34 168.372 210.991 170.024 213.028 170.024Z" fill="#4C0153"/>
<path d="M261.313 211.602C263.35 211.602 265.002 209.951 265.002 207.914C265.002 205.876 263.35 204.225 261.313 204.225C259.276 204.225 257.625 205.876 257.625 207.914C257.625 209.951 259.276 211.602 261.313 211.602Z" fill="#4C0153"/>
<path d="M166.755 169.353C168.792 169.353 170.443 167.702 170.443 165.664C170.443 163.627 168.792 161.976 166.755 161.976C164.718 161.976 163.066 163.627 163.066 165.664C163.066 167.702 164.718 169.353 166.755 169.353Z" fill="#4C0153"/>
<path d="M211.685 218.308C213.722 218.308 215.373 216.657 215.373 214.62C215.373 212.583 213.722 210.932 211.685 210.932C209.647 210.932 207.996 212.583 207.996 214.62C207.996 216.657 209.647 218.308 211.685 218.308Z" fill="#4C0153"/>
<path d="M166.755 216.296C168.792 216.296 170.443 214.645 170.443 212.608C170.443 210.571 168.792 208.919 166.755 208.919C164.718 208.919 163.066 210.571 163.066 212.608C163.066 214.645 164.718 216.296 166.755 216.296Z" fill="#4C0153"/>
<path d="M117.13 218.308C119.167 218.308 120.818 216.657 120.818 214.62C120.818 212.583 119.167 210.932 117.13 210.932C115.093 210.932 113.441 212.583 113.441 214.62C113.441 216.657 115.093 218.308 117.13 218.308Z" fill="#4C0153"/>
<path d="M68.8447 218.308C70.8817 218.308 72.5331 216.657 72.5331 214.62C72.5331 212.583 70.8817 210.932 68.8447 210.932C66.8076 210.932 65.1562 212.583 65.1562 214.62C65.1562 216.657 66.8076 218.308 68.8447 218.308Z" fill="#4C0153"/>
<path d="M260.642 261.899C262.679 261.899 264.33 260.247 264.33 258.21C264.33 256.173 262.679 254.522 260.642 254.522C258.604 254.522 256.953 256.173 256.953 258.21C256.953 260.247 258.604 261.899 260.642 261.899Z" fill="#4C0153"/>
<path d="M164.743 269.275C166.78 269.275 168.432 267.624 168.432 265.587C168.432 263.55 166.78 261.898 164.743 261.898C162.706 261.898 161.055 263.55 161.055 265.587C161.055 267.624 162.706 269.275 164.743 269.275Z" fill="#4C0153"/>
<path d="M115.786 266.593C117.823 266.593 119.474 264.942 119.474 262.905C119.474 260.868 117.823 259.216 115.786 259.216C113.749 259.216 112.098 260.868 112.098 262.905C112.098 264.942 113.749 266.593 115.786 266.593Z" fill="#4C0153"/>
<path d="M68.8447 265.252C70.8817 265.252 72.5331 263.6 72.5331 261.563C72.5331 259.526 70.8817 257.875 68.8447 257.875C66.8076 257.875 65.1562 259.526 65.1562 261.563C65.1562 263.6 66.8076 265.252 68.8447 265.252Z" fill="#4C0153"/>
<path d="M212.356 267.264C214.393 267.264 216.045 265.612 216.045 263.575C216.045 261.538 214.393 259.887 212.356 259.887C210.319 259.887 208.668 261.538 208.668 263.575C208.668 265.612 210.319 267.264 212.356 267.264Z" fill="#4C0153"/>
<path d="M262.653 314.207C264.69 314.207 266.342 312.556 266.342 310.518C266.342 308.481 264.69 306.83 262.653 306.83C260.616 306.83 258.965 308.481 258.965 310.518C258.965 312.556 260.616 314.207 262.653 314.207Z" fill="#4C0153"/>
<path d="M164.743 313.536C166.78 313.536 168.432 311.885 168.432 309.848C168.432 307.811 166.78 306.16 164.743 306.16C162.706 306.16 161.055 307.811 161.055 309.848C161.055 311.885 162.706 313.536 164.743 313.536Z" fill="#4C0153"/>
<path d="M115.786 313.536C117.823 313.536 119.474 311.885 119.474 309.848C119.474 307.811 117.823 306.16 115.786 306.16C113.749 306.16 112.098 307.811 112.098 309.848C112.098 311.885 113.749 313.536 115.786 313.536Z" fill="#4C0153"/>
<path d="M19.2197 266.593C21.2567 266.593 22.9081 264.942 22.9081 262.905C22.9081 260.868 21.2567 259.216 19.2197 259.216C17.1826 259.216 15.5312 260.868 15.5312 262.905C15.5312 264.942 17.1826 266.593 19.2197 266.593Z" fill="#4C0153"/>
<path d="M67.5048 314.207C69.5419 314.207 71.1932 312.556 71.1932 310.518C71.1932 308.481 69.5419 306.83 67.5048 306.83C65.4678 306.83 63.8164 308.481 63.8164 310.518C63.8164 312.556 65.4678 314.207 67.5048 314.207Z" fill="#4C0153"/>
<path d="M212.356 313.536C214.393 313.536 216.045 311.885 216.045 309.848C216.045 307.811 214.393 306.16 212.356 306.16C210.319 306.16 208.668 307.811 208.668 309.848C208.668 311.885 210.319 313.536 212.356 313.536Z" fill="#4C0153"/>
<path d="M256.618 414.129C258.655 414.129 260.307 412.478 260.307 410.441C260.307 408.404 258.655 406.752 256.618 406.752C254.581 406.752 252.93 408.404 252.93 410.441C252.93 412.478 254.581 414.129 256.618 414.129Z" fill="#4C0153"/>
<path d="M210.345 412.788C212.382 412.788 214.033 411.137 214.033 409.1C214.033 407.062 212.382 405.411 210.345 405.411C208.308 405.411 206.656 407.062 206.656 409.1C206.656 411.137 208.308 412.788 210.345 412.788Z" fill="#4C0153"/>
<path d="M307.587 410.776C309.624 410.776 311.275 409.125 311.275 407.088C311.275 405.051 309.624 403.399 307.587 403.399C305.55 403.399 303.898 405.051 303.898 407.088C303.898 409.125 305.55 410.776 307.587 410.776Z" fill="#4C0153"/>
<path d="M261.313 363.833C263.35 363.833 265.002 362.182 265.002 360.144C265.002 358.107 263.35 356.456 261.313 356.456C259.276 356.456 257.625 358.107 257.625 360.144C257.625 362.182 259.276 363.833 261.313 363.833Z" fill="#4C0153"/>
<path d="M164.743 358.468C166.78 358.468 168.432 356.817 168.432 354.78C168.432 352.743 166.78 351.091 164.743 351.091C162.706 351.091 161.055 352.743 161.055 354.78C161.055 356.817 162.706 358.468 164.743 358.468Z" fill="#4C0153"/>
<path d="M117.798 362.492C119.835 362.492 121.486 360.84 121.486 358.803C121.486 356.766 119.835 355.115 117.798 355.115C115.761 355.115 114.109 356.766 114.109 358.803C114.109 360.84 115.761 362.492 117.798 362.492Z" fill="#4C0153"/>
<path d="M160.72 408.094C162.757 408.094 164.408 406.442 164.408 404.405C164.408 402.368 162.757 400.717 160.72 400.717C158.683 400.717 157.031 402.368 157.031 404.405C157.031 406.442 158.683 408.094 160.72 408.094Z" fill="#4C0153"/>
<path d="M207.661 359.809C209.698 359.809 211.349 358.158 211.349 356.121C211.349 354.084 209.698 352.433 207.661 352.433C205.624 352.433 203.973 354.084 203.973 356.121C203.973 358.158 205.624 359.809 207.661 359.809Z" fill="#4C0153"/>
<path d="M307.587 363.833C309.624 363.833 311.275 362.182 311.275 360.144C311.275 358.107 309.624 356.456 307.587 356.456C305.55 356.456 303.898 358.107 303.898 360.144C303.898 362.182 305.55 363.833 307.587 363.833Z" fill="#4C0153"/>
<path d="M257.958 456.379C259.995 456.379 261.646 454.727 261.646 452.69C261.646 450.653 259.995 449.002 257.958 449.002C255.921 449.002 254.27 450.653 254.27 452.69C254.27 454.727 255.921 456.379 257.958 456.379Z" fill="#4C0153"/>
<path d="M206.993 454.367C209.03 454.367 210.682 452.715 210.682 450.678C210.682 448.641 209.03 446.99 206.993 446.99C204.956 446.99 203.305 448.641 203.305 450.678C203.305 452.715 204.956 454.367 206.993 454.367Z" fill="#4C0153"/>
<path d="M307.587 457.72C309.624 457.72 311.275 456.068 311.275 454.031C311.275 451.994 309.624 450.343 307.587 450.343C305.55 450.343 303.898 451.994 303.898 454.031C303.898 456.068 305.55 457.72 307.587 457.72Z" fill="#4C0153"/>
<path d="M260.642 508.016C262.679 508.016 264.33 506.365 264.33 504.328C264.33 502.291 262.679 500.64 260.642 500.64C258.604 500.64 256.953 502.291 256.953 504.328C256.953 506.365 258.604 508.016 260.642 508.016Z" fill="#4C0153"/>
</svg>
