<svg width="471" height="95" viewBox="0 0 471 95" fill="none" xmlns="http://www.w3.org/2000/svg">
<path d="M77.0288 46.6117C74.1219 45.3983 70.6982 44.731 66.7578 44.731C62.8174 44.731 59.4583 45.3377 56.5514 46.6117C53.6446 47.8251 51.3836 49.6452 49.8333 51.9506C48.283 54.256 47.5078 57.0468 47.5078 60.3836C47.5078 63.7204 48.283 66.4505 49.8333 68.7559C51.3836 71.122 53.6446 72.8814 56.5514 74.0948C59.4583 75.3082 62.882 75.9755 66.7578 75.9755C70.6336 75.9755 74.1865 75.3688 77.0288 74.0948C79.9356 72.8814 82.132 71.0613 83.6823 68.7559C85.2326 66.3898 86.0078 63.599 86.0078 60.3836C86.0078 57.1681 85.2326 54.256 83.6823 51.9506C82.132 49.6452 79.871 47.8858 77.0288 46.6117ZM71.7318 66.2685C70.4398 67.5425 68.7603 68.2099 66.7578 68.2099C64.7553 68.2099 63.0758 67.5425 61.7838 66.2685C60.4919 64.9944 59.8459 63.053 59.8459 60.4443C59.8459 57.8355 60.4919 55.8941 61.7192 54.62C62.9466 53.346 64.6261 52.6786 66.7578 52.6786C68.8895 52.6786 70.4398 53.346 71.7318 54.62C73.0237 55.8941 73.6697 57.8355 73.6697 60.4443C73.6697 63.053 73.0237 64.9944 71.7318 66.2685Z" fill="white"/>
<path d="M60.1081 31.9908C61.6584 29.6247 62.4336 26.8339 62.4336 23.6184C62.4336 20.403 61.6584 17.4909 60.1081 15.1854C58.5577 12.88 56.2968 11.1206 53.4545 9.84656C50.5477 8.63317 47.124 7.96582 43.1836 7.96582C39.2432 7.96582 35.8841 8.57251 32.9772 9.84656C30.0703 11.0599 27.8094 12.88 26.2591 15.1854C24.7088 17.4909 23.9336 20.2816 23.9336 23.6184C23.9336 26.9552 24.7088 29.6853 26.2591 31.9908C27.8094 34.3569 30.0703 36.1163 32.9772 37.3296C35.8841 38.543 39.3077 39.2104 43.1836 39.2104C47.0594 39.2104 50.6123 38.6037 53.4545 37.3296C56.3614 36.1163 58.5577 34.2962 60.1081 31.9908ZM48.093 29.4427C46.801 30.7167 45.1215 31.3841 43.119 31.3841C41.1165 31.3841 39.4369 30.7167 38.145 29.4427C36.8531 28.1686 36.2071 26.2272 36.2071 23.6184C36.2071 21.0097 36.853 19.0683 38.0804 17.7942C39.3077 16.5202 40.9873 15.8528 43.119 15.8528C45.2507 15.8528 46.801 16.5202 48.093 17.7942C49.3849 19.0683 50.0309 21.0097 50.0309 23.6184C50.0309 26.2272 49.3849 28.1686 48.093 29.4427Z" fill="white"/>
<path d="M29.81 46.6117C26.9031 45.3983 23.4795 44.731 19.5391 44.731C15.5986 44.731 12.2396 45.3377 9.33268 46.6117C6.4258 47.8251 4.1649 49.6452 2.61457 51.9506C1.06423 54.256 0.289062 57.0468 0.289062 60.3836C0.289062 63.7204 1.06423 66.4505 2.61457 68.7559C4.1649 71.122 6.4258 72.8814 9.33268 74.0948C12.2396 75.3082 15.6632 75.9755 19.5391 75.9755C23.4149 75.9755 26.9677 75.3688 29.81 74.0948C32.7169 72.8814 34.9132 71.0613 36.4635 68.7559C38.0139 66.3898 38.789 63.599 38.789 60.3836C38.789 57.1681 38.0139 54.256 36.4635 51.9506C34.9132 49.6452 32.6523 47.8858 29.81 46.6117ZM24.513 66.2685C23.2211 67.5425 21.5416 68.2099 19.5391 68.2099C17.5365 68.2099 15.857 67.5425 14.5651 66.2685C13.2731 64.9944 12.6271 63.053 12.6271 60.4443C12.6271 57.8355 13.2731 55.8941 14.5005 54.62C15.7278 53.346 17.4073 52.6786 19.5391 52.6786C21.6708 52.6786 23.2211 53.346 24.513 54.62C25.805 55.8941 26.451 57.8355 26.451 60.4443C26.451 63.053 25.805 64.9944 24.513 66.2685Z" fill="white"/>
<path d="M119.181 28.0331C117.676 28.0331 116.423 27.8204 115.42 27.395C114.418 26.9696 113.666 26.3619 113.164 25.5718C112.678 24.7818 112.435 23.8551 112.435 22.7916C112.435 21.9256 112.587 21.1812 112.891 20.5583C113.195 19.9202 113.605 19.3884 114.121 18.963C114.638 18.5224 115.223 18.1806 115.876 17.9375C116.529 17.6792 117.259 17.5045 118.064 17.4134C118.869 17.307 119.743 17.2538 120.685 17.2538H125.288C126.093 17.2538 126.853 17.2311 127.567 17.1855C128.281 17.1399 128.934 17.0487 129.527 16.912C130.134 16.7601 130.659 16.5246 131.099 16.2055C131.509 15.9017 131.828 15.5295 132.056 15.0889C132.284 14.6331 132.398 14.0634 132.398 13.3797C132.398 12.6201 132.261 12.0048 131.988 11.5338C131.73 11.0476 131.38 10.6906 130.94 10.4627C130.499 10.2196 130.013 10.0981 129.481 10.0981C129.071 10.0981 128.714 10.1589 128.41 10.2804C128.106 10.4019 127.848 10.5843 127.635 10.8273C127.392 11.116 127.21 11.4882 127.088 11.944C126.967 12.3846 126.906 13.0759 126.906 14.0178V15.9093H123.51V14.3824C123.51 13.6988 123.442 13.0834 123.305 12.5365C123.169 11.9896 122.941 11.5186 122.622 11.1236C122.303 10.7286 121.862 10.4323 121.3 10.2348C120.753 10.0221 120.062 9.91577 119.226 9.91577C119.165 9.91577 119.059 9.92337 118.907 9.93856C118.77 9.93856 118.672 9.94616 118.611 9.96135L117.882 10.0981C117.228 10.2348 116.719 10.4475 116.355 10.7362C115.99 11.0248 115.732 11.3515 115.58 11.7161C115.443 12.0655 115.375 12.415 115.375 12.7644C115.375 13.2506 115.496 13.6684 115.739 14.0178C115.983 14.352 116.4 14.5192 116.993 14.5192C117.525 14.5192 117.92 14.3824 118.178 14.109C118.436 13.8355 118.565 13.4785 118.565 13.0379C118.565 12.6277 118.467 12.2554 118.269 11.9212C118.087 11.5718 117.775 11.2907 117.335 11.078C116.909 10.8653 116.324 10.759 115.58 10.759L118.337 9.64231C118.884 9.71827 119.393 9.90058 119.864 10.1892C120.35 10.4779 120.738 10.8653 121.026 11.3515C121.315 11.8376 121.459 12.415 121.459 13.0834C121.459 14.2077 121.064 15.1117 120.274 15.7953C119.5 16.479 118.375 16.8208 116.902 16.8208C115.929 16.8208 115.109 16.6537 114.44 16.3195C113.787 15.9701 113.286 15.4839 112.936 14.861C112.602 14.2381 112.435 13.5164 112.435 12.696C112.435 11.6325 112.739 10.7286 113.347 9.98414C113.954 9.22451 114.782 8.64718 115.831 8.25217C116.879 7.84197 118.056 7.63687 119.363 7.63687C120.593 7.63687 121.604 7.77361 122.394 8.04707C123.199 8.32054 123.852 8.67757 124.354 9.11816C124.855 9.54355 125.25 9.98414 125.539 10.4399L124.582 10.759C124.885 10.0753 125.28 9.50557 125.767 9.04979C126.268 8.57882 126.845 8.22939 127.499 8.0015C128.167 7.75841 128.904 7.63687 129.709 7.63687C131.076 7.63687 132.208 7.89515 133.105 8.4117C134.001 8.91306 134.67 9.58913 135.11 10.4399C135.566 11.2755 135.794 12.2023 135.794 13.2202C135.794 14.4964 135.558 15.5447 135.087 16.3651C134.632 17.1855 134.009 17.8388 133.219 18.3249C132.641 18.6744 131.996 18.9478 131.282 19.1453C130.567 19.3428 129.777 19.4872 128.911 19.5783C128.061 19.6543 127.126 19.6923 126.108 19.6923H120.799C120.1 19.6923 119.507 19.7227 119.021 19.7834C118.55 19.829 118.147 19.9126 117.813 20.0341C117.479 20.1556 117.175 20.3076 116.902 20.4899C116.537 20.733 116.264 21.0368 116.081 21.4014C115.914 21.7813 115.831 22.2218 115.831 22.7232C115.831 23.3765 115.99 23.9158 116.309 24.3412C116.643 24.7666 117.084 25.0781 117.631 25.2756C118.193 25.4883 118.824 25.5946 119.522 25.5946C120.267 25.5946 120.92 25.4959 121.482 25.2984C122.044 25.1009 122.493 24.7894 122.827 24.364C123.04 24.1057 123.207 23.7791 123.328 23.3841C123.45 23.0043 123.51 22.4497 123.51 21.7205V21.1052H126.906V21.8116C126.906 22.5409 126.952 23.0878 127.043 23.4525C127.134 23.8323 127.263 24.1513 127.43 24.4096C127.734 24.8958 128.106 25.2148 128.547 25.3667C129.003 25.5187 129.42 25.5946 129.8 25.5946C130.362 25.5946 130.833 25.4807 131.213 25.2528C131.608 25.0401 131.904 24.7286 132.102 24.3184C132.299 23.9082 132.398 23.4297 132.398 22.8827C132.398 22.4725 132.36 22.0623 132.284 21.6521C132.208 21.2571 132.11 20.9077 131.988 20.6038L135.247 19.6239C135.46 20.0949 135.604 20.6038 135.68 21.1508C135.756 21.6977 135.794 22.237 135.794 22.7688C135.794 23.8323 135.581 24.759 135.156 25.549C134.745 26.3391 134.107 26.9468 133.241 27.3722C132.391 27.8128 131.297 28.0331 129.96 28.0331C128.972 28.0331 128.129 27.8963 127.43 27.6228C126.747 27.3646 126.177 27.0075 125.721 26.5518C125.28 26.096 124.923 25.5946 124.65 25.0477L125.607 25.2072C125.227 25.6782 124.756 26.1264 124.194 26.5518C123.647 26.9924 122.964 27.3494 122.143 27.6228C121.338 27.8963 120.35 28.0331 119.181 28.0331ZM141.606 21.014C141.059 21.014 140.596 20.8697 140.216 20.581C139.836 20.2772 139.646 19.791 139.646 19.1225C139.646 18.4237 139.836 17.9375 140.216 17.664C140.596 17.3754 141.059 17.2311 141.606 17.2311C142.153 17.2311 142.609 17.3754 142.973 17.664C143.353 17.9375 143.543 18.4237 143.543 19.1225C143.543 19.791 143.353 20.2772 142.973 20.581C142.609 20.8697 142.153 21.014 141.606 21.014ZM154.007 28.0331C152.503 28.0331 151.249 27.8204 150.247 27.395C149.244 26.9696 148.492 26.3619 147.991 25.5718C147.504 24.7818 147.261 23.8551 147.261 22.7916C147.261 21.9256 147.413 21.1812 147.717 20.5583C148.021 19.9202 148.431 19.3884 148.948 18.963C149.464 18.5224 150.049 18.1806 150.702 17.9375C151.356 17.6792 152.085 17.5045 152.89 17.4134C153.695 17.307 154.569 17.2538 155.511 17.2538H160.114C160.92 17.2538 161.679 17.2311 162.393 17.1855C163.107 17.1399 163.761 17.0487 164.353 16.912C164.961 16.7601 165.485 16.5246 165.925 16.2055C166.336 15.9017 166.655 15.5295 166.883 15.0889C167.111 14.6331 167.224 14.0634 167.224 13.3797C167.224 12.6201 167.088 12.0048 166.814 11.5338C166.556 11.0476 166.207 10.6906 165.766 10.4627C165.325 10.2196 164.839 10.0981 164.307 10.0981C163.897 10.0981 163.54 10.1589 163.236 10.2804C162.933 10.4019 162.674 10.5843 162.462 10.8273C162.218 11.116 162.036 11.4882 161.915 11.944C161.793 12.3846 161.732 13.0759 161.732 14.0178V15.9093H158.337V14.3824C158.337 13.6988 158.268 13.0834 158.132 12.5365C157.995 11.9896 157.767 11.5186 157.448 11.1236C157.129 10.7286 156.688 10.4323 156.126 10.2348C155.579 10.0221 154.888 9.91577 154.052 9.91577C153.992 9.91577 153.885 9.92337 153.733 9.93856C153.597 9.93856 153.498 9.94616 153.437 9.96135L152.708 10.0981C152.055 10.2348 151.546 10.4475 151.181 10.7362C150.816 11.0248 150.558 11.3515 150.406 11.7161C150.269 12.0655 150.201 12.415 150.201 12.7644C150.201 13.2506 150.323 13.6684 150.566 14.0178C150.809 14.352 151.227 14.5192 151.819 14.5192C152.351 14.5192 152.746 14.3824 153.004 14.109C153.262 13.8355 153.392 13.4785 153.392 13.0379C153.392 12.6277 153.293 12.2554 153.095 11.9212C152.913 11.5718 152.602 11.2907 152.161 11.078C151.736 10.8653 151.151 10.759 150.406 10.759L153.164 9.64231C153.711 9.71827 154.22 9.90058 154.691 10.1892C155.177 10.4779 155.564 10.8653 155.853 11.3515C156.141 11.8376 156.286 12.415 156.286 13.0834C156.286 14.2077 155.891 15.1117 155.101 15.7953C154.326 16.479 153.202 16.8208 151.728 16.8208C150.756 16.8208 149.935 16.6537 149.267 16.3195C148.613 15.9701 148.112 15.4839 147.763 14.861C147.428 14.2381 147.261 13.5164 147.261 12.696C147.261 11.6325 147.565 10.7286 148.173 9.98414C148.781 9.22451 149.609 8.64718 150.657 8.25217C151.705 7.84197 152.883 7.63687 154.189 7.63687C155.42 7.63687 156.43 7.77361 157.22 8.04707C158.025 8.32054 158.679 8.67757 159.18 9.11816C159.681 9.54355 160.076 9.98414 160.365 10.4399L159.408 10.759C159.712 10.0753 160.107 9.50557 160.593 9.04979C161.094 8.57882 161.672 8.22939 162.325 8.0015C162.993 7.75841 163.73 7.63687 164.535 7.63687C165.903 7.63687 167.035 7.89515 167.931 8.4117C168.827 8.91306 169.496 9.58913 169.936 10.4399C170.392 11.2755 170.62 12.2023 170.62 13.2202C170.62 14.4964 170.385 15.5447 169.914 16.3651C169.458 17.1855 168.835 17.8388 168.045 18.3249C167.468 18.6744 166.822 18.9478 166.108 19.1453C165.394 19.3428 164.604 19.4872 163.738 19.5783C162.887 19.6543 161.953 19.6923 160.935 19.6923H155.625C154.926 19.6923 154.333 19.7227 153.847 19.7834C153.376 19.829 152.974 19.9126 152.639 20.0341C152.305 20.1556 152.001 20.3076 151.728 20.4899C151.363 20.733 151.09 21.0368 150.908 21.4014C150.74 21.7813 150.657 22.2218 150.657 22.7232C150.657 23.3765 150.816 23.9158 151.135 24.3412C151.47 24.7666 151.91 25.0781 152.457 25.2756C153.019 25.4883 153.65 25.5946 154.349 25.5946C155.093 25.5946 155.746 25.4959 156.309 25.2984C156.871 25.1009 157.319 24.7894 157.653 24.364C157.866 24.1057 158.033 23.7791 158.154 23.3841C158.276 23.0043 158.337 22.4497 158.337 21.7205V21.1052H161.732V21.8116C161.732 22.5409 161.778 23.0878 161.869 23.4525C161.96 23.8323 162.089 24.1513 162.256 24.4096C162.56 24.8958 162.933 25.2148 163.373 25.3667C163.829 25.5187 164.247 25.5946 164.627 25.5946C165.189 25.5946 165.66 25.4807 166.039 25.2528C166.434 25.0401 166.731 24.7286 166.928 24.3184C167.126 23.9082 167.224 23.4297 167.224 22.8827C167.224 22.4725 167.186 22.0623 167.111 21.6521C167.035 21.2571 166.936 20.9077 166.814 20.6038L170.073 19.6239C170.286 20.0949 170.43 20.6038 170.506 21.1508C170.582 21.6977 170.62 22.237 170.62 22.7688C170.62 23.8323 170.407 24.759 169.982 25.549C169.572 26.3391 168.934 26.9468 168.068 27.3722C167.217 27.8128 166.123 28.0331 164.786 28.0331C163.799 28.0331 162.955 27.8963 162.256 27.6228C161.573 27.3646 161.003 27.0075 160.547 26.5518C160.107 26.096 159.75 25.5946 159.476 25.0477L160.433 25.2072C160.054 25.6782 159.583 26.1264 159.02 26.5518C158.473 26.9924 157.79 27.3494 156.969 27.6228C156.164 27.8963 155.177 28.0331 154.007 28.0331ZM176.432 21.014C175.885 21.014 175.422 20.8697 175.042 20.581C174.662 20.2772 174.472 19.791 174.472 19.1225C174.472 18.4237 174.662 17.9375 175.042 17.664C175.422 17.3754 175.885 17.2311 176.432 17.2311C176.979 17.2311 177.435 17.3754 177.8 17.664C178.179 17.9375 178.369 18.4237 178.369 19.1225C178.369 19.791 178.179 20.2772 177.8 20.581C177.435 20.8697 176.979 21.014 176.432 21.014ZM182.84 20.7178V7.91034H186.235V18.2793H200.478V20.7178H182.84ZM193.459 9.75625C194.31 9.75625 195.017 9.87779 195.579 10.1209C196.156 10.364 196.612 10.683 196.946 11.078C197.28 11.473 197.516 11.9136 197.652 12.3998C197.789 12.8708 197.858 13.3493 197.858 13.8355C197.858 14.5344 197.774 15.2712 197.607 16.046C197.44 16.8057 197.25 17.5501 197.037 18.2793L194.485 27.1899L191.408 26.3695L193.186 20.3076L193.277 19.8746L193.824 18.0287C194.037 17.269 194.211 16.5702 194.348 15.9321C194.5 15.294 194.576 14.6711 194.576 14.0634C194.576 13.4861 194.47 13.0303 194.257 12.696C194.059 12.3618 193.74 12.1947 193.3 12.1947C192.844 12.1947 192.472 12.3618 192.183 12.696C191.91 13.0303 191.773 13.5088 191.773 14.1317C191.773 14.7243 191.879 15.3016 192.092 15.8637C192.32 16.4106 192.624 16.9424 193.003 17.4589C193.383 17.9755 193.801 18.4693 194.257 18.9402L191.887 20.3531C191.31 19.6999 190.778 19.0542 190.292 18.4161C189.805 17.7628 189.418 17.0791 189.129 16.3651C188.856 15.651 188.719 14.8686 188.719 14.0178C188.719 13.2582 188.894 12.5593 189.243 11.9212C189.593 11.2679 190.117 10.7438 190.816 10.3488C191.53 9.95376 192.411 9.75625 193.459 9.75625ZM205.495 21.014C204.948 21.014 204.484 20.8697 204.104 20.581C203.725 20.2772 203.535 19.791 203.535 19.1225C203.535 18.4237 203.725 17.9375 204.104 17.664C204.484 17.3754 204.948 17.2311 205.495 17.2311C206.041 17.2311 206.497 17.3754 206.862 17.664C207.242 17.9375 207.432 18.4237 207.432 19.1225C207.432 19.791 207.242 20.2772 206.862 20.581C206.497 20.8697 206.041 21.014 205.495 21.014ZM223.678 20.9912C222.63 20.9912 221.711 20.7785 220.921 20.3531C220.131 19.9278 219.516 19.2897 219.075 18.4389C218.634 17.5881 218.414 16.5246 218.414 15.2484C218.414 13.7291 218.794 12.3998 219.554 11.2603C220.313 10.1209 221.4 9.2321 222.812 8.59401C224.241 7.95592 225.935 7.63687 227.894 7.63687C228.836 7.63687 229.687 7.69764 230.447 7.81918C231.222 7.92553 231.951 8.11544 232.634 8.38891C233.318 8.66238 234.017 9.027 234.731 9.48278L235.301 9.84741C236.349 10.6526 237.207 11.6022 237.876 12.696C238.544 13.7747 238.879 15.0281 238.879 16.4562C238.879 17.383 238.696 18.1882 238.332 18.8719C237.982 19.5555 237.473 20.0797 236.805 20.4443C236.136 20.8089 235.324 20.9912 234.366 20.9912C233.273 20.9912 232.384 20.7861 231.7 20.3759C231.032 19.9657 230.538 19.4188 230.219 18.7351C229.9 18.0363 229.74 17.2766 229.74 16.4562C229.74 15.5902 229.869 14.7698 230.128 13.995C230.386 13.2202 230.743 12.4909 231.199 11.8073C231.655 11.1236 232.179 10.4931 232.771 9.91577L233.227 9.64231C234.032 8.95863 234.898 8.45728 235.825 8.13823C236.767 7.80399 237.701 7.63687 238.628 7.63687C240.284 7.63687 241.613 7.94072 242.616 8.54843C243.634 9.15614 244.371 9.96895 244.827 10.9869C245.298 11.9896 245.533 13.091 245.533 14.2913C245.533 15.218 245.427 16.0992 245.214 16.9348C245.017 17.7552 244.766 18.5148 244.462 19.2137C244.158 19.8974 243.839 20.4899 243.505 20.9912L240.702 19.6239C241.097 19.001 241.431 18.2793 241.705 17.4589C241.993 16.6233 242.138 15.6358 242.138 14.4964C242.138 13.5696 241.978 12.7796 241.659 12.1263C241.355 11.473 240.915 10.9793 240.337 10.645C239.775 10.2956 239.091 10.1209 238.286 10.1209C237.694 10.1209 237.147 10.2044 236.645 10.3716C236.144 10.5235 235.658 10.8045 235.187 11.2147C234.716 11.5338 234.306 11.9364 233.956 12.4226C233.622 12.9087 233.364 13.4785 233.181 14.1317C232.999 14.7698 232.908 15.4915 232.908 16.2967C232.908 17.1323 233.037 17.74 233.295 18.1198C233.554 18.4844 233.88 18.6668 234.275 18.6668C234.64 18.6668 234.921 18.5528 235.118 18.3249C235.331 18.097 235.476 17.8008 235.551 17.4362C235.627 17.0563 235.665 16.6537 235.665 16.2283C235.665 15.2864 235.43 14.3824 234.959 13.5164C234.503 12.6505 233.835 11.9668 232.954 11.4654C232.239 10.9793 231.465 10.6374 230.629 10.4399C229.793 10.2272 228.897 10.1209 227.94 10.1209C226.649 10.1209 225.547 10.3184 224.636 10.7134C223.724 11.0932 223.01 11.6022 222.493 12.2403C221.977 12.8783 221.65 13.5772 221.513 14.3368C221.498 14.504 221.475 14.6711 221.445 14.8382C221.43 15.0053 221.422 15.2408 221.422 15.5447C221.422 16.2891 221.498 16.8892 221.65 17.345C221.817 17.8008 222.06 18.135 222.379 18.3477C222.698 18.5452 223.078 18.644 223.519 18.644C223.868 18.644 224.157 18.5756 224.385 18.4389C224.628 18.3021 224.81 18.1046 224.932 17.8464C225.069 17.5881 225.137 17.2766 225.137 16.912C225.137 16.3499 224.977 15.9093 224.658 15.5902C224.354 15.2712 223.929 15.1117 223.382 15.1117C222.744 15.1117 222.182 15.3016 221.696 15.6814C221.21 16.046 220.746 16.4486 220.306 16.8892L219.804 14.7015C220.366 14.1697 221.004 13.7215 221.719 13.3569C222.433 12.9923 223.268 12.81 224.225 12.81C225.456 12.81 226.443 13.1518 227.188 13.8355C227.948 14.5192 228.327 15.4915 228.327 16.7525C228.327 17.6337 228.153 18.3933 227.803 19.0314C227.454 19.6543 226.937 20.1405 226.254 20.4899C225.57 20.8241 224.712 20.9912 223.678 20.9912ZM281.155 7.63687C282.507 7.63687 283.646 7.94832 284.573 8.57122C285.515 9.17893 286.222 10.0525 286.693 11.192C287.179 12.3314 287.422 13.6912 287.422 15.2712C287.422 17.1247 287.186 18.644 286.715 19.829C286.244 21.014 285.584 21.9484 284.733 22.6321C284.11 23.1334 283.403 23.5208 282.613 23.7943C281.823 24.083 280.942 24.2805 279.97 24.3868C278.997 24.5083 277.926 24.5691 276.757 24.5691H256.064C255.137 24.5691 254.484 24.6071 254.104 24.6831C253.724 24.7742 253.413 24.9034 253.17 25.0705C252.927 25.2528 252.737 25.4807 252.6 25.7541C252.463 26.0428 252.395 26.4302 252.395 26.9164C252.395 27.0835 252.403 27.243 252.418 27.395C252.433 27.5469 252.448 27.7064 252.463 27.8735L249.136 28.0331C249.091 27.714 249.053 27.395 249.022 27.0759C249.007 26.7721 249 26.4378 249 26.0732C249 25.3895 249.136 24.7894 249.41 24.2729C249.683 23.7715 250.048 23.3613 250.504 23.0423C250.807 22.8296 251.149 22.6548 251.529 22.5181C251.909 22.3814 252.38 22.2826 252.942 22.2218C253.504 22.1611 254.203 22.1307 255.039 22.1307H276.301C277.623 22.1307 278.77 22.0395 279.742 21.8572C280.714 21.6749 281.512 21.3407 282.135 20.8545C282.773 20.3683 283.244 19.6771 283.548 18.7807C283.867 17.8843 284.026 16.7297 284.026 15.3168C284.026 14.0558 283.89 13.0455 283.616 12.2858C283.343 11.511 282.97 10.9489 282.499 10.5994C282.044 10.25 281.519 10.0753 280.927 10.0753C280.547 10.0753 280.205 10.1361 279.901 10.2576C279.613 10.364 279.355 10.5539 279.127 10.8273C278.868 11.1616 278.694 11.549 278.602 11.9896C278.526 12.415 278.489 12.9771 278.489 13.676V20.7178H275.093V13.9039C275.093 13.0227 275.063 12.3466 275.002 11.8756C274.956 11.4047 274.842 11.0248 274.66 10.7362C274.538 10.5235 274.371 10.364 274.159 10.2576C273.946 10.1361 273.688 10.0753 273.384 10.0753C273.095 10.0753 272.837 10.1285 272.609 10.2348C272.381 10.3412 272.206 10.5007 272.085 10.7134C271.887 11.0021 271.758 11.3819 271.697 11.8528C271.652 12.3238 271.629 12.9771 271.629 13.8127V20.7178H268.233V13.1746C268.233 12.4302 268.287 11.7845 268.393 11.2375C268.499 10.6754 268.659 10.1968 268.872 9.80183C269.084 9.40682 269.343 9.06498 269.646 8.77632C270.057 8.38131 270.535 8.09265 271.082 7.91034C271.629 7.72803 272.199 7.63687 272.791 7.63687C273.612 7.63687 274.295 7.74322 274.842 7.95592C275.389 8.15342 275.868 8.47247 276.278 8.91306C276.703 9.35364 277.106 9.93856 277.486 10.6678L276.255 10.3943C276.65 9.84741 277.06 9.36884 277.486 8.95863C277.911 8.53324 278.413 8.2066 278.99 7.97871C279.582 7.75082 280.304 7.63687 281.155 7.63687ZM254.355 20.9912C253.307 20.9912 252.387 20.7785 251.597 20.3531C250.823 19.9278 250.215 19.2897 249.774 18.4389C249.334 17.5729 249.113 16.5018 249.113 15.2256C249.113 13.5848 249.47 12.2023 250.185 11.078C250.899 9.95376 251.871 9.10297 253.102 8.52564C254.332 7.93313 255.715 7.63687 257.249 7.63687C258.647 7.63687 259.832 7.81918 260.804 8.18381C261.777 8.53324 262.567 9.01941 263.174 9.64231C263.782 10.25 264.223 10.9565 264.496 11.7617C264.77 12.5517 264.906 13.3797 264.906 14.2457C264.906 14.9901 264.83 15.7042 264.678 16.3879C264.526 17.0563 264.329 17.6868 264.086 18.2793H268.894L270.284 20.7178H260.599L260.485 18.8719C260.774 18.3553 261.017 17.74 261.214 17.026C261.412 16.3119 261.511 15.5143 261.511 14.6331C261.511 13.676 261.336 12.8632 260.987 12.1947C260.652 11.5262 260.151 11.0172 259.482 10.6678C258.814 10.3032 257.986 10.1209 256.998 10.1209C255.965 10.1209 255.084 10.364 254.355 10.8501C253.626 11.3363 253.071 11.9896 252.691 12.81C252.312 13.6152 252.122 14.5116 252.122 15.4991C252.122 16.2587 252.205 16.874 252.372 17.345C252.539 17.8008 252.775 18.135 253.079 18.3477C253.398 18.5452 253.778 18.644 254.218 18.644C254.568 18.644 254.856 18.5756 255.084 18.4389C255.327 18.3021 255.51 18.1046 255.631 17.8464C255.768 17.5881 255.836 17.2766 255.836 16.912C255.836 16.3347 255.677 15.8941 255.358 15.5902C255.054 15.2712 254.628 15.1117 254.081 15.1117C253.443 15.1117 252.874 15.3016 252.372 15.6814C251.871 16.046 251.415 16.4486 251.005 16.8892L250.504 14.7015C251.066 14.1697 251.704 13.7215 252.418 13.3569C253.132 12.9923 253.968 12.81 254.925 12.81C256.14 12.81 257.128 13.1518 257.887 13.8355C258.647 14.5192 259.027 15.4915 259.027 16.7525C259.027 17.6337 258.844 18.3933 258.48 19.0314C258.13 19.6543 257.606 20.1405 256.907 20.4899C256.224 20.8241 255.373 20.9912 254.355 20.9912ZM296.681 20.9912C295.542 20.9912 294.539 20.8393 293.673 20.5355C292.807 20.2164 292.131 19.7606 291.645 19.1681C291.159 18.5604 290.916 17.8236 290.916 16.9576C290.916 16.122 291.159 15.4003 291.645 14.7926C292.146 14.1697 292.936 13.6836 294.015 13.3341C295.109 12.9847 296.53 12.81 298.277 12.81H302.082C303.602 12.81 304.946 12.9923 306.116 13.3569C307.286 13.7215 308.205 14.3217 308.874 15.1573C309.557 15.9777 309.899 17.0943 309.899 18.5072C309.899 19.5403 309.679 20.4139 309.238 21.128C308.813 21.8572 308.198 22.4877 307.392 23.0195C306.891 23.3537 306.283 23.6348 305.569 23.8627C304.87 24.1057 304.042 24.2805 303.085 24.3868C302.143 24.5083 301.049 24.5691 299.804 24.5691H298.026C297.099 24.5691 296.438 24.6071 296.043 24.6831C295.664 24.7742 295.352 24.9034 295.109 25.0705C294.866 25.2528 294.676 25.4807 294.539 25.7541C294.403 26.0428 294.334 26.4302 294.334 26.9164C294.334 27.0835 294.342 27.243 294.357 27.395C294.372 27.5469 294.387 27.7064 294.403 27.8735L291.075 28.0331C291.03 27.714 290.992 27.395 290.961 27.0759C290.946 26.7721 290.939 26.4378 290.939 26.0732C290.939 25.3895 291.075 24.7894 291.349 24.2729C291.622 23.7715 291.987 23.3613 292.443 23.0423C292.747 22.8296 293.088 22.6548 293.468 22.5181C293.848 22.3814 294.319 22.2826 294.881 22.2218C295.443 22.1611 296.142 22.1307 296.978 22.1307H299.029C300.35 22.1307 301.437 22.0775 302.288 21.9712C303.138 21.88 303.822 21.7281 304.339 21.5154C304.87 21.3027 305.303 21.0216 305.638 20.6722C305.941 20.3683 306.169 20.0189 306.321 19.6239C306.473 19.2137 306.549 18.7503 306.549 18.2338C306.549 17.5653 306.405 17.026 306.116 16.6157C305.843 16.2055 305.47 15.8941 304.999 15.6814C304.544 15.4535 304.035 15.3016 303.473 15.2256C302.926 15.1497 302.379 15.1117 301.832 15.1117H297.844C297.312 15.1117 296.803 15.1421 296.317 15.2028C295.846 15.2484 295.443 15.3548 295.109 15.5219C294.82 15.6738 294.608 15.8637 294.471 16.0916C294.334 16.3195 294.266 16.5854 294.266 16.8892C294.266 17.4513 294.501 17.8691 294.972 18.1426C295.458 18.4161 296.104 18.5528 296.909 18.5528C297.502 18.5528 298.003 18.4617 298.413 18.2793C298.839 18.097 299.165 17.7704 299.393 17.2994C299.621 16.8133 299.735 16.1448 299.735 15.294V10.3488H296.294V13.8355L293.24 14.2001V7.91034H307.347V10.3488H303.04V15.2484C303.04 16.3119 302.933 17.1551 302.721 17.778C302.523 18.3857 302.234 18.9022 301.855 19.3276C301.308 19.9354 300.594 20.3683 299.712 20.6266C298.831 20.8697 297.821 20.9912 296.681 20.9912ZM319.177 25.5718L317.035 23.5892L320.886 19.9657V10.3488H317.331V20.7178H313.935V7.91034H327.54V10.3488H324.281V20.7178L319.177 25.5718ZM331.104 20.7178V7.91034H344.709V10.3488H341.45V20.7178H338.054V10.3488H334.499V20.7178H331.104ZM348.272 20.7178V7.91034H351.667V18.2793H360.191V7.91034H363.586V20.7178H348.272ZM368.578 20.7178V7.91034H382.183V10.3488H378.924V20.7178H375.529V10.3488H371.974V20.7178H368.578ZM389.778 20.9912C388.639 20.9912 387.636 20.8393 386.77 20.5355C385.904 20.2164 385.228 19.7606 384.742 19.1681C384.256 18.5604 384.013 17.8236 384.013 16.9576C384.013 16.122 384.256 15.4003 384.742 14.7926C385.243 14.1697 386.033 13.6836 387.112 13.3341C388.206 12.9847 389.626 12.81 391.373 12.81H395.179C396.698 12.81 398.043 12.9923 399.213 13.3569C400.383 13.7215 401.302 14.3217 401.97 15.1573C402.654 15.9777 402.996 17.0943 402.996 18.5072C402.996 19.5403 402.776 20.4139 402.335 21.128C401.91 21.8572 401.294 22.4877 400.489 23.0195C399.988 23.3537 399.38 23.6348 398.666 23.8627C397.967 24.1057 397.139 24.2805 396.182 24.3868C395.24 24.5083 394.146 24.5691 392.9 24.5691H391.123C390.196 24.5691 389.535 24.6071 389.14 24.6831C388.76 24.7742 388.449 24.9034 388.206 25.0705C387.963 25.2528 387.773 25.4807 387.636 25.7541C387.499 26.0428 387.431 26.4302 387.431 26.9164C387.431 27.0835 387.439 27.243 387.454 27.395C387.469 27.5469 387.484 27.7064 387.499 27.8735L384.172 28.0331C384.127 27.714 384.089 27.395 384.058 27.0759C384.043 26.7721 384.035 26.4378 384.035 26.0732C384.035 25.3895 384.172 24.7894 384.446 24.2729C384.719 23.7715 385.084 23.3613 385.539 23.0423C385.843 22.8296 386.185 22.6548 386.565 22.5181C386.945 22.3814 387.416 22.2826 387.978 22.2218C388.54 22.1611 389.239 22.1307 390.074 22.1307H392.125C393.447 22.1307 394.534 22.0775 395.384 21.9712C396.235 21.88 396.919 21.7281 397.435 21.5154C397.967 21.3027 398.4 21.0216 398.734 20.6722C399.038 20.3683 399.266 20.0189 399.418 19.6239C399.57 19.2137 399.646 18.7503 399.646 18.2338C399.646 17.5653 399.502 17.026 399.213 16.6157C398.939 16.2055 398.567 15.8941 398.096 15.6814C397.64 15.4535 397.131 15.3016 396.569 15.2256C396.022 15.1497 395.475 15.1117 394.929 15.1117H390.94C390.409 15.1117 389.9 15.1421 389.414 15.2028C388.943 15.2484 388.54 15.3548 388.206 15.5219C387.917 15.6738 387.704 15.8637 387.568 16.0916C387.431 16.3195 387.363 16.5854 387.363 16.8892C387.363 17.4513 387.598 17.8691 388.069 18.1426C388.555 18.4161 389.201 18.5528 390.006 18.5528C390.599 18.5528 391.1 18.4617 391.51 18.2793C391.936 18.097 392.262 17.7704 392.49 17.2994C392.718 16.8133 392.832 16.1448 392.832 15.294V10.3488H389.391V13.8355L386.337 14.2001V7.91034H400.443V10.3488H396.136V15.2484C396.136 16.3119 396.03 17.1551 395.817 17.778C395.62 18.3857 395.331 18.9022 394.951 19.3276C394.404 19.9354 393.69 20.3683 392.809 20.6266C391.928 20.8697 390.918 20.9912 389.778 20.9912ZM394.063 5.63144C393.516 5.63144 393.067 5.45672 392.718 5.10729C392.369 4.74266 392.194 4.28688 392.194 3.73995C392.194 3.19301 392.369 2.74483 392.718 2.39539C393.067 2.03077 393.516 1.84846 394.063 1.84846C394.594 1.84846 395.035 2.03077 395.384 2.39539C395.734 2.74483 395.908 3.19301 395.908 3.73995C395.908 4.28688 395.734 4.74266 395.384 5.10729C395.035 5.45672 394.594 5.63144 394.063 5.63144Z" fill="white"/>
<path d="M126.043 76.5889C123.55 76.5889 121.357 76.2566 119.463 75.5919C117.568 74.894 116.089 73.897 115.026 72.6009C113.962 71.2715 113.431 69.6596 113.431 67.7653C113.431 65.9374 113.962 64.3588 115.026 63.0295C116.123 61.6669 117.851 60.6034 120.21 59.839C122.603 59.0746 125.711 58.6924 129.532 58.6924H137.858C141.181 58.6924 144.122 59.0912 146.681 59.8888C149.24 60.6865 151.251 61.9992 152.713 63.8271C154.209 65.6217 154.956 68.0644 154.956 71.1552C154.956 73.4151 154.475 75.326 153.511 76.888C152.58 78.4833 151.234 79.8625 149.473 81.0257C148.376 81.7568 147.047 82.3717 145.485 82.8702C143.956 83.4019 142.145 83.7841 140.051 84.0167C137.991 84.2826 135.598 84.4155 132.873 84.4155H128.984C126.957 84.4155 125.511 84.4986 124.647 84.6648C123.816 84.8642 123.135 85.1467 122.603 85.5123C122.071 85.9111 121.656 86.4096 121.357 87.0078C121.058 87.6392 120.908 88.4867 120.908 89.5502C120.908 89.9158 120.925 90.2647 120.958 90.5971C120.991 90.9294 121.025 91.2784 121.058 91.6439L113.78 91.9929C113.68 91.295 113.597 90.5971 113.53 89.8992C113.497 89.2345 113.48 88.5033 113.48 87.7057C113.48 86.2102 113.78 84.8974 114.378 83.7675C114.976 82.6708 115.774 81.7734 116.771 81.0755C117.435 80.6102 118.183 80.2281 119.014 79.929C119.845 79.6298 120.875 79.4138 122.105 79.2809C123.334 79.148 124.863 79.0815 126.691 79.0815H131.178C134.069 79.0815 136.445 78.9652 138.306 78.7325C140.167 78.5331 141.663 78.2008 142.793 77.7355C143.956 77.2702 144.903 76.6554 145.634 75.891C146.299 75.2263 146.798 74.462 147.13 73.5979C147.462 72.7006 147.628 71.6869 147.628 70.557C147.628 69.0947 147.313 67.9149 146.681 67.0175C146.083 66.1202 145.269 65.4389 144.239 64.9737C143.242 64.4751 142.128 64.1428 140.899 63.9766C139.702 63.8105 138.506 63.7274 137.309 63.7274H128.585C127.422 63.7274 126.309 63.7938 125.245 63.9268C124.215 64.0265 123.334 64.2591 122.603 64.6247C121.972 64.957 121.506 65.3725 121.207 65.871C120.908 66.3695 120.759 66.9511 120.759 67.6158C120.759 68.8454 121.274 69.7593 122.304 70.3576C123.368 70.9558 124.78 71.2549 126.541 71.2549C127.838 71.2549 128.934 71.0555 129.832 70.6567C130.762 70.2579 131.477 69.5433 131.975 68.5131C132.474 67.4496 132.723 65.9873 132.723 64.1262V53.3085H125.195V60.9357L118.515 61.7333V47.9745H149.373V53.3085H139.951V64.0265C139.951 66.3529 139.719 68.1973 139.253 69.5599C138.821 70.8893 138.19 72.0193 137.359 72.9498C136.163 74.2792 134.601 75.2263 132.673 75.7913C130.746 76.3231 128.535 76.5889 126.043 76.5889ZM187.913 47.3762C191.004 47.3762 193.513 48.0409 195.441 49.3703C197.369 50.6664 198.781 52.4611 199.678 54.7542C200.609 57.0473 201.074 59.6396 201.074 62.531C201.074 65.0567 200.775 67.1671 200.177 68.862C199.612 70.557 198.698 71.9362 197.435 72.9997C196.538 73.764 195.524 74.3623 194.394 74.7943C193.264 75.2263 191.902 75.5421 190.306 75.7415C188.744 75.9076 186.8 75.9907 184.474 75.9907H160.795V47.9745H168.222V70.6567H177.395V58.2936C177.395 56.2331 177.611 54.5548 178.043 53.2587C178.508 51.9625 179.173 50.8824 180.037 50.0184C180.934 49.1543 182.031 48.5062 183.327 48.0742C184.657 47.6089 186.185 47.3762 187.913 47.3762ZM188.412 52.7103C187.98 52.7103 187.548 52.7768 187.116 52.9097C186.717 53.0426 186.351 53.2753 186.019 53.6076C185.587 54.0397 185.271 54.6379 185.072 55.4023C184.906 56.1334 184.823 57.3464 184.823 59.0414V70.6567H186.717C188.478 70.6567 189.858 70.4074 190.855 69.9089C191.885 69.3772 192.599 68.5131 192.998 67.3166C193.43 66.1202 193.646 64.525 193.646 62.531C193.646 60.7031 193.48 59.058 193.148 57.5957C192.815 56.1002 192.267 54.9204 191.503 54.0563C190.738 53.159 189.708 52.7103 188.412 52.7103ZM199.406 33.5675C202.032 33.5675 204.275 33.9497 206.136 34.7141C208.031 35.4452 209.543 36.3924 210.673 37.5556C211.437 38.3532 212.135 39.3502 212.767 40.5467C213.398 41.7099 213.896 43.2552 214.262 45.1828C214.661 47.0771 214.86 49.5531 214.86 52.6106V75.9907H207.432V54.5548C207.432 51.9958 207.349 49.8522 207.183 48.124C207.017 46.3626 206.718 44.9003 206.286 43.7371C205.854 42.5407 205.239 41.5437 204.441 40.7461C203.81 40.1146 203.095 39.6327 202.298 39.3004C201.5 38.968 200.586 38.8019 199.556 38.8019C198.127 38.8019 196.997 39.0677 196.166 39.5995C195.302 40.1312 194.687 40.8125 194.322 41.6434C193.956 42.441 193.773 43.2885 193.773 44.1858C193.773 45.1163 193.923 46.1134 194.222 47.1768C194.488 48.2071 194.903 49.254 195.468 50.3175H188.09C187.658 49.5198 187.326 48.5727 187.093 47.476C186.827 46.3792 186.694 45.3157 186.694 44.2855C186.694 42.3911 187.06 40.7793 187.791 39.4499C188.522 38.0873 189.503 36.974 190.732 36.1099C191.962 35.2458 193.341 34.6144 194.87 34.2156C196.366 33.7835 197.878 33.5675 199.406 33.5675ZM249.886 47.3762C252.977 47.3762 255.486 48.0409 257.414 49.3703C259.341 50.6664 260.754 52.4611 261.651 54.7542C262.582 57.0473 263.047 59.6396 263.047 62.531C263.047 65.0567 262.748 67.1671 262.15 68.862C261.585 70.557 260.671 71.9362 259.408 72.9997C258.511 73.764 257.497 74.3623 256.367 74.7943C255.237 75.2263 253.875 75.5421 252.279 75.7415C250.717 75.9076 248.773 75.9907 246.447 75.9907H222.767V47.9745H230.195V70.6567H239.368V58.2936C239.368 56.2331 239.584 54.5548 240.016 53.2587C240.481 51.9625 241.146 50.8824 242.01 50.0184C242.907 49.1543 244.004 48.5062 245.3 48.0742C246.629 47.6089 248.158 47.3762 249.886 47.3762ZM250.385 52.7103C249.953 52.7103 249.521 52.7768 249.089 52.9097C248.69 53.0426 248.324 53.2753 247.992 53.6076C247.56 54.0397 247.244 54.6379 247.045 55.4023C246.879 56.1334 246.796 57.3464 246.796 59.0414V70.6567H248.69C250.451 70.6567 251.831 70.4074 252.828 69.9089C253.858 69.3772 254.572 68.5131 254.971 67.3166C255.403 66.1202 255.619 64.525 255.619 62.531C255.619 60.7031 255.453 59.058 255.121 57.5957C254.788 56.1002 254.24 54.9204 253.476 54.0563C252.711 53.159 251.681 52.7103 250.385 52.7103ZM230.195 78.1343C230.86 78.1343 231.541 78.1509 232.239 78.1842C232.97 78.2506 233.635 78.3503 234.233 78.4833L233.884 83.4185C233.552 83.3521 233.153 83.3022 232.688 83.269C232.223 83.269 231.724 83.269 231.192 83.269C230.361 83.269 229.647 83.3853 229.049 83.6179C228.484 83.8838 228.201 84.3158 228.201 84.9141C228.201 85.4458 228.401 85.8446 228.799 86.1105C229.231 86.3763 229.763 86.5591 230.395 86.6588C231.059 86.7585 231.741 86.8084 232.439 86.8084H233.785C235.247 86.8084 236.51 86.6422 237.573 86.3099C238.67 85.9775 239.601 85.4624 240.365 84.7645C241.163 84.0998 241.827 83.2524 242.359 82.2221C242.558 81.8565 242.907 81.5076 243.406 81.1752C243.904 80.8761 244.602 80.6269 245.5 80.4275C246.397 80.2613 247.51 80.1782 248.84 80.1782L253.376 81.6239C251.947 81.923 250.9 82.2719 250.235 82.6708C249.604 83.1028 249.139 83.6512 248.84 84.3158C248.075 86.0772 247.028 87.5229 245.699 88.6529C244.403 89.8161 242.824 90.6635 240.963 91.1953C239.102 91.727 236.909 91.9929 234.383 91.9929H232.538C230.744 91.9929 229.065 91.7935 227.503 91.3947C225.975 90.9959 224.762 90.4807 223.864 89.8493C223.166 89.384 222.535 88.736 221.97 87.9051C221.438 87.0743 221.172 86.044 221.172 84.8143C221.172 82.7538 221.953 81.1254 223.515 79.929C225.077 78.7325 227.304 78.1343 230.195 78.1343ZM246.945 85.1633L246.497 84.5651C245.167 84.266 243.971 83.7841 242.907 83.1194C241.877 82.488 241.046 81.574 240.415 80.3776C239.817 79.2144 239.484 77.7355 239.418 75.9409L246.596 75.891C246.596 76.6886 246.729 77.3699 246.995 77.9349C247.294 78.5331 247.759 78.9818 248.391 79.2809C248.856 79.5135 249.388 79.6631 249.986 79.7295C250.584 79.8292 251.399 79.8791 252.429 79.8791H257.713V85.1633H246.945ZM242.16 42.9894C240.963 42.9894 239.983 42.6072 239.218 41.8428C238.454 41.0452 238.072 40.0482 238.072 38.8517C238.072 37.6553 238.454 36.6749 239.218 35.9105C239.983 35.1129 240.963 34.7141 242.16 34.7141C243.323 34.7141 244.286 35.1129 245.051 35.9105C245.815 36.6749 246.197 37.6553 246.197 38.8517C246.197 40.0482 245.815 41.0452 245.051 41.8428C244.286 42.6072 243.323 42.9894 242.16 42.9894ZM293.073 76.5889C290.58 76.5889 288.387 76.2566 286.493 75.5919C284.598 74.894 283.119 73.897 282.056 72.6009C280.992 71.2715 280.461 69.6596 280.461 67.7653C280.461 65.9374 280.992 64.3588 282.056 63.0295C283.153 61.6669 284.881 60.6034 287.24 59.839C289.6 59.0746 292.691 58.6924 296.513 58.6924H316.403V63.7274H295.615C294.452 63.7274 293.339 63.7938 292.275 63.9268C291.245 64.0265 290.364 64.2591 289.633 64.6247C289.002 64.957 288.537 65.3725 288.237 65.871C287.938 66.3695 287.789 66.9511 287.789 67.6158C287.789 68.8786 288.304 69.8092 289.334 70.4074C290.398 70.9724 291.81 71.2549 293.571 71.2549C294.868 71.2549 295.964 71.0555 296.862 70.6567C297.792 70.2579 298.507 69.5433 299.005 68.5131C299.504 67.4496 299.753 65.9873 299.753 64.1262V53.3085H292.226V60.9357L285.545 61.7333V47.9745H316.403V53.3085H306.882V64.0265C306.882 66.3529 306.666 68.1973 306.234 69.5599C305.802 70.8893 305.17 72.0193 304.339 72.9498C303.11 74.2792 301.531 75.2263 299.603 75.7913C297.709 76.3231 295.532 76.5889 293.073 76.5889ZM322.616 75.9907V47.9745H355.168V53.3085H344.7V59.7393C345.597 59.1743 346.577 58.7423 347.641 58.4432C348.704 58.1108 349.901 57.9447 351.23 57.9447C353.39 57.9447 355.118 58.3269 356.414 59.0912C357.711 59.8556 358.641 60.836 359.206 62.0324C359.771 63.1956 360.054 64.3921 360.054 65.6217C360.054 66.7184 359.904 67.6822 359.605 68.5131C359.306 69.3439 358.957 70.0585 358.558 70.6567H371.918V75.9907H337.272V70.6567H351.28C351.612 70.2911 351.928 69.776 352.227 69.1113C352.526 68.4466 352.676 67.6988 352.676 66.868C352.676 65.5054 352.343 64.5748 351.679 64.0763C351.014 63.5446 350.15 63.2787 349.086 63.2787C348.355 63.2787 347.607 63.4283 346.843 63.7274C346.112 63.9932 345.397 64.3754 344.7 64.8739V68.0146H337.272V53.3085H330.043V75.9907H322.616ZM362.596 75.9907L361.001 70.6567H366.235V47.9745H373.663V75.9907H362.596ZM348.189 42.9894C346.993 42.9894 346.012 42.6072 345.248 41.8428C344.483 41.0452 344.101 40.0482 344.101 38.8517C344.101 37.6553 344.483 36.6749 345.248 35.9105C346.012 35.1129 346.993 34.7141 348.189 34.7141C349.352 34.7141 350.316 35.1129 351.08 35.9105C351.845 36.6749 352.227 37.6553 352.227 38.8517C352.227 40.0482 351.845 41.0452 351.08 41.8428C350.316 42.6072 349.352 42.9894 348.189 42.9894ZM392.288 76.5889C389.796 76.5889 387.602 76.2566 385.708 75.5919C383.813 74.894 382.335 73.897 381.271 72.6009C380.208 71.2715 379.676 69.6596 379.676 67.7653C379.676 65.9374 380.208 64.3588 381.271 63.0295C382.368 61.6669 384.096 60.6034 386.456 59.839C388.815 59.0746 391.906 58.6924 395.728 58.6924H406.296C408.423 58.6924 410.185 58.7755 411.58 58.9417C412.976 59.1079 414.173 59.3903 415.17 59.7891C416.167 60.1547 417.097 60.6532 417.961 61.2847C418.958 61.9826 419.739 62.9131 420.304 64.0763C420.903 65.2063 421.202 66.5024 421.202 67.9647C421.202 70.6567 420.338 72.767 418.609 74.2958C416.915 75.8246 414.472 76.5889 411.281 76.5889C410.484 76.5889 409.57 76.5391 408.54 76.4394C407.543 76.3729 406.612 76.2234 405.748 75.9907L406.944 70.8561C407.41 70.989 407.875 71.0887 408.34 71.1552C408.805 71.1884 409.304 71.205 409.836 71.205C411.232 71.205 412.295 70.9225 413.026 70.3576C413.757 69.7593 414.123 68.8454 414.123 67.6158C414.123 66.7517 413.89 66.0704 413.425 65.5719C412.993 65.0401 412.378 64.6413 411.58 64.3754C410.816 64.1096 409.935 63.9434 408.938 63.8769C407.941 63.7772 406.911 63.7274 405.848 63.7274H394.831C393.667 63.7274 392.554 63.7938 391.491 63.9268C390.46 64.0265 389.58 64.2591 388.848 64.6247C388.217 64.957 387.752 65.3725 387.453 65.871C387.153 66.3695 387.004 66.9511 387.004 67.6158C387.004 68.8786 387.519 69.8092 388.549 70.4074C389.613 71.0056 391.025 71.3047 392.787 71.3047C394.083 71.3047 395.18 71.1053 396.077 70.7065C397.007 70.2745 397.722 69.5433 398.22 68.5131C398.719 67.4496 398.968 65.9873 398.968 64.1262V53.3085H391.441V60.9357L384.761 61.7333V47.9745H415.569V53.3085H406.197V64.0265C406.197 66.3529 405.964 68.1973 405.499 69.5599C405.067 70.8893 404.435 72.0193 403.604 72.9498C402.375 74.2792 400.796 75.2263 398.868 75.7913C396.974 76.3231 394.781 76.5889 392.288 76.5889ZM454.305 47.3762C457.395 47.3762 459.905 48.0409 461.832 49.3703C463.76 50.6664 465.172 52.4611 466.07 54.7542C467 57.0473 467.465 59.6396 467.465 62.531C467.465 65.0567 467.166 67.1671 466.568 68.862C466.003 70.557 465.089 71.9362 463.826 72.9997C462.929 73.764 461.915 74.3623 460.785 74.7943C459.655 75.2263 458.293 75.5421 456.698 75.7415C455.136 75.9076 453.191 75.9907 450.865 75.9907H427.186V47.9745H434.614V70.6567H443.786V58.2936C443.786 56.2331 444.002 54.5548 444.434 53.2587C444.9 51.9625 445.564 50.8824 446.428 50.0184C447.326 49.1543 448.422 48.5062 449.718 48.0742C451.048 47.6089 452.577 47.3762 454.305 47.3762ZM454.803 52.7103C454.371 52.7103 453.939 52.7768 453.507 52.9097C453.108 53.0426 452.743 53.2753 452.41 53.6076C451.978 54.0397 451.663 54.6379 451.463 55.4023C451.297 56.1334 451.214 57.3464 451.214 59.0414V70.6567H453.108C454.87 70.6567 456.249 70.4074 457.246 69.9089C458.276 69.3772 458.991 68.5131 459.39 67.3166C459.822 66.1202 460.038 64.525 460.038 62.531C460.038 60.7031 459.871 59.058 459.539 57.5957C459.207 56.1002 458.658 54.9204 457.894 54.0563C457.13 53.159 456.099 52.7103 454.803 52.7103ZM446.578 42.9894C445.381 42.9894 444.401 42.6072 443.637 41.8428C442.872 41.0452 442.49 40.0482 442.49 38.8517C442.49 37.6553 442.872 36.6749 443.637 35.9105C444.401 35.1129 445.381 34.7141 446.578 34.7141C447.741 34.7141 448.705 35.1129 449.469 35.9105C450.234 36.6749 450.616 37.6553 450.616 38.8517C450.616 40.0482 450.234 41.0452 449.469 41.8428C448.705 42.6072 447.741 42.9894 446.578 42.9894Z" fill="white"/>
</svg>
