<svg width="570" height="88" viewBox="0 0 570 88" fill="none" xmlns="http://www.w3.org/2000/svg">
<path d="M76.9768 46.2182C74.0608 45.001 70.6264 44.3315 66.6736 44.3315C62.7208 44.3315 59.3513 44.9401 56.4353 46.2182C53.5193 47.4354 51.2513 49.2612 49.6961 51.5738C48.1409 53.8865 47.3633 56.686 47.3633 60.0332C47.3633 63.3805 48.1409 66.1192 49.6961 68.4318C51.2513 70.8054 53.5193 72.5703 56.4353 73.7875C59.3513 75.0046 62.7856 75.6741 66.6736 75.6741C70.5616 75.6741 74.1256 75.0655 76.9768 73.7875C79.8928 72.5703 82.096 70.7445 83.6512 68.4318C85.2064 66.0583 85.984 63.2588 85.984 60.0332C85.984 56.8077 85.2064 53.8865 83.6512 51.5738C82.096 49.2612 79.828 47.4962 76.9768 46.2182ZM71.6632 65.9366C70.3672 67.2146 68.6824 67.8841 66.6736 67.8841C64.6648 67.8841 62.98 67.2146 61.684 65.9366C60.388 64.6586 59.74 62.7111 59.74 60.0941C59.74 57.4772 60.3881 55.5297 61.6192 54.2516C62.8504 52.9736 64.5352 52.3041 66.6736 52.3041C68.812 52.3041 70.3672 52.9736 71.6632 54.2516C72.9592 55.5297 73.6072 57.4772 73.6072 60.0941C73.6072 62.7111 72.9592 64.6586 71.6632 65.9366Z" fill="white"/>
<path d="M59.9989 31.5515C61.5541 29.1779 62.3316 26.3784 62.3316 23.1529C62.3316 19.9273 61.5541 17.0061 59.9989 14.6934C58.4437 12.3808 56.1757 10.6159 53.3245 9.33781C50.4085 8.12062 46.9741 7.45117 43.0213 7.45117C39.0685 7.45117 35.6989 8.05976 32.7829 9.33781C29.8669 10.555 27.5989 12.3808 26.0437 14.6934C24.4885 17.0061 23.7109 19.8056 23.7109 23.1529C23.7109 26.5001 24.4885 29.2388 26.0437 31.5515C27.5989 33.925 29.8669 35.6899 32.7829 36.9071C35.6989 38.1243 39.1333 38.7937 43.0213 38.7937C46.9093 38.7937 50.4733 38.1851 53.3245 36.9071C56.2405 35.6899 58.4437 33.8641 59.9989 31.5515ZM47.9461 28.9954C46.6501 30.2734 44.9653 30.9429 42.9565 30.9429C40.9477 30.9429 39.2629 30.2734 37.9669 28.9954C36.6709 27.7173 36.0229 25.7698 36.0229 23.1529C36.0229 20.5359 36.6709 18.5884 37.9021 17.3104C39.1333 16.0323 40.8181 15.3629 42.9565 15.3629C45.0949 15.3629 46.6501 16.0323 47.9461 17.3104C49.2421 18.5884 49.8901 20.5359 49.8901 23.1529C49.8901 25.7698 49.2421 27.7173 47.9461 28.9954Z" fill="white"/>
<path d="M29.6057 46.2182C26.6897 45.001 23.2553 44.3315 19.3025 44.3315C15.3498 44.3315 11.9802 44.9401 9.06417 46.2182C6.14817 47.4354 3.88018 49.2612 2.32499 51.5738C0.76979 53.8865 -0.0078125 56.686 -0.0078125 60.0332C-0.0078125 63.3805 0.76979 66.1192 2.32499 68.4318C3.88018 70.8054 6.14817 72.5703 9.06417 73.7875C11.9802 75.0046 15.4146 75.6741 19.3025 75.6741C23.1905 75.6741 26.7545 75.0655 29.6057 73.7875C32.5217 72.5703 34.7249 70.7445 36.2801 68.4318C37.8353 66.0583 38.6129 63.2588 38.6129 60.0332C38.6129 56.8077 37.8353 53.8865 36.2801 51.5738C34.7249 49.2612 32.4569 47.4962 29.6057 46.2182ZM24.2921 65.9366C22.9961 67.2146 21.3113 67.8841 19.3025 67.8841C17.2937 67.8841 15.609 67.2146 14.313 65.9366C13.017 64.6586 12.369 62.7111 12.369 60.0941C12.369 57.4772 13.017 55.5297 14.2482 54.2516C15.4794 52.9736 17.1642 52.3041 19.3025 52.3041C21.4409 52.3041 22.9961 52.9736 24.2921 54.2516C25.5881 55.5297 26.2361 57.4772 26.2361 60.0941C26.2361 62.7111 25.5881 64.6586 24.2921 65.9366Z" fill="white"/>
<path d="M105.856 22.3296V6.37727H109.548V22.3296H105.856ZM115.795 22.5119C114.565 22.5119 113.585 21.5776 113.585 20.2786C113.585 18.9568 114.565 18.0908 115.795 18.0908C117.026 18.0908 118.006 18.9568 118.006 20.2786C118.006 21.5776 117.026 22.5119 115.795 22.5119ZM122.033 22.3296V6.37727H125.725V22.3296H122.033ZM131.972 22.5119C130.741 22.5119 129.761 21.5776 129.761 20.2786C129.761 18.9568 130.741 18.0908 131.972 18.0908C133.202 18.0908 134.182 18.9568 134.182 20.2786C134.182 21.5776 133.202 22.5119 131.972 22.5119ZM140.757 22.3296V9.38542H135.653V6.37727H149.554V9.38542H144.449V22.3296H140.757ZM153.245 22.5119C152.014 22.5119 151.034 21.5776 151.034 20.2786C151.034 18.9568 152.014 18.0908 153.245 18.0908C154.475 18.0908 155.455 18.9568 155.455 20.2786C155.455 21.5776 154.475 22.5119 153.245 22.5119ZM178.243 6.37727H181.934V22.3296H178.243V15.7891H170.996V22.3296H167.304V6.37727H170.996V12.667H178.243V6.37727ZM200.932 6.37727L194.733 16.6779V22.3296H191.041V16.6323L184.866 6.37727H188.785L193.047 13.4647L197.308 6.37727H200.932ZM203.688 22.3296V6.37727H210.935C216.154 6.37727 219.732 9.52216 219.732 14.3534C219.732 19.1847 216.154 22.3296 210.935 22.3296H203.688ZM207.38 19.2986H210.753C213.92 19.2986 215.994 17.4072 215.994 14.3534C215.994 11.2997 213.92 9.40821 210.753 9.40821H207.38V19.2986ZM227.552 19.367H236.235V22.3296H223.883V6.37727H235.938V9.33984H227.552V12.8038H234.958V15.6752H227.552V19.367ZM254.669 22.3296H250.703L247.627 17.8857H247.445H244.231V22.3296H240.539V6.37727H247.445C251.706 6.37727 254.372 8.5878 254.372 12.1657C254.372 14.5585 253.165 16.3133 251.091 17.2021L254.669 22.3296ZM250.635 12.1657C250.635 10.4109 249.496 9.38542 247.239 9.38542H244.231V14.9459H247.239C249.496 14.9459 250.635 13.8976 250.635 12.1657ZM270.583 22.3296L269.171 18.9112H261.764L260.351 22.3296H256.568L263.678 6.37727H267.325L274.458 22.3296H270.583ZM262.949 16.1082H268.008L265.479 10.0007L262.949 16.1082ZM289.194 14.0344C290.971 14.6041 292.111 15.9715 292.111 17.9769C292.111 20.7344 289.923 22.3296 285.73 22.3296H277.48V6.37727H285.274C289.262 6.37727 291.313 8.04087 291.313 10.5249C291.313 12.1201 290.493 13.3507 289.194 14.0344ZM284.818 9.15753H281.149V12.9177H284.818C286.618 12.9177 287.598 12.2796 287.598 11.0262C287.598 9.77284 286.618 9.15753 284.818 9.15753ZM285.456 19.5493C287.37 19.5493 288.396 18.9568 288.396 17.5895C288.396 16.2449 287.37 15.6068 285.456 15.6068H281.149V19.5493H285.456ZM308.192 22.3296L306.779 18.9112H299.372L297.959 22.3296H294.176L301.286 6.37727H304.933L312.066 22.3296H308.192ZM300.557 16.1082H305.616L303.087 10.0007L300.557 16.1082ZM315.088 22.3296V6.37727H322.335C327.554 6.37727 331.132 9.52216 331.132 14.3534C331.132 19.1847 327.554 22.3296 322.335 22.3296H315.088ZM318.78 19.2986H322.153C325.32 19.2986 327.394 17.4072 327.394 14.3534C327.394 11.2997 325.32 9.40821 322.153 9.40821H318.78V19.2986Z" fill="white"/>
<path d="M115.331 74.9053V46.5899H104.164V40.0096H134.573V46.5899H123.407V74.9053H115.331ZM164.235 74.9053L161.144 67.4276H144.943L141.852 74.9053H133.577L149.13 40.0096H157.106L172.71 74.9053H164.235ZM147.535 61.296H158.602L153.068 47.9359L147.535 61.296ZM216.66 74.9053H209.082L209.032 53.9679L198.763 71.2163H195.124L184.905 54.4165V74.9053H177.327V40.0096H184.007L197.068 61.6948L209.93 40.0096H216.56L216.66 74.9053ZM225.936 74.9053V40.0096H234.012V74.9053H225.936ZM251.715 68.3249H271.556V74.9053H241.047V69.6709L260.19 46.5899H241.446V40.0096H270.808V45.2439L251.715 68.3249ZM301.661 40.0096H309.737V74.9053H301.661V60.598H285.808V74.9053H277.732V40.0096H285.808V53.7684H301.661V40.0096ZM345.57 75.5035C340.037 75.5035 334.454 73.8584 331.363 71.4656L334.105 65.3837C337.046 67.5273 341.433 69.0229 345.62 69.0229C350.406 69.0229 352.35 67.4276 352.35 65.284C352.35 58.7536 332.061 63.2401 332.061 50.2789C332.061 44.3466 336.847 39.4114 346.767 39.4114C351.154 39.4114 355.64 40.4582 358.881 42.5021L356.388 48.6338C353.148 46.7893 349.808 45.892 346.717 45.892C341.931 45.892 340.087 47.6866 340.087 49.8801C340.087 56.3108 360.376 51.8741 360.376 64.6858C360.376 70.5184 355.541 75.5035 345.57 75.5035ZM392.964 74.9053L389.873 67.4276H373.671L370.58 74.9053H362.305L377.859 40.0096H385.835L401.438 74.9053H392.964ZM376.263 61.296H387.33L381.797 47.9359L376.263 61.296ZM430.084 40.0096H438.06V74.9053H431.43L414.032 53.7186V74.9053H406.056V40.0096H412.736L430.084 61.1962V40.0096ZM470.893 67.1285V56.9091H478.271V71.0667C474.432 73.9581 469.148 75.5035 464.163 75.5035C453.196 75.5035 445.12 67.976 445.12 57.4574C445.12 46.9389 453.196 39.4114 464.312 39.4114C470.444 39.4114 475.529 41.5051 478.919 45.4433L473.734 50.229C471.192 47.5371 468.251 46.2908 464.711 46.2908C457.931 46.2908 453.295 50.8272 453.295 57.4574C453.295 63.9879 457.931 68.624 464.611 68.624C466.805 68.624 468.849 68.2252 470.893 67.1285ZM512.842 74.9053L509.751 67.4276H493.549L490.458 74.9053H482.183L497.737 40.0096H505.713L521.316 74.9053H512.842ZM496.141 61.296H507.208L501.675 47.9359L496.141 61.296ZM565.266 74.9053H557.689L557.639 53.9679L547.37 71.2163H543.73L533.511 54.4165V74.9053H525.934V40.0096H532.614L545.675 61.6948L558.536 40.0096H565.166L565.266 74.9053Z" fill="white"/>
</svg>
